<?xml version="1.0" standalone="no"?>
<!DOCTYPE svg PUBLIC "-//W3C//DTD SVG 1.1//EN" "http://www.w3.org/Graphics/SVG/1.1/DTD/svg11.dtd" >
<svg xmlns="http://www.w3.org/2000/svg">
<metadata></metadata>
<defs>
<font id="omnes_extralightitalic" horiz-adv-x="1153" >
<font-face units-per-em="2048" ascent="1434" descent="-614" />
<missing-glyph horiz-adv-x="372" />
<glyph unicode="&#xfb01;" horiz-adv-x="976" d="M115 922q0 20 14 34q7 7 27 7h178l24 118q15 68 36.5 121t54.5 99t82.5 71t113.5 25q102 0 158 -56q22 -22 22 -43q0 -11 -6 -20.5t-13 -12.5t-9 -1q-19 35 -60.5 55t-95.5 20q-51 0 -89.5 -22t-63.5 -62.5t-40.5 -83t-27.5 -98.5l-23 -110h232q30 0 30 -17 q0 -23 -12 -35q-6 -6 -26 -6h-236l-186 -876q-5 -33 -31 -33h-6q-34 0 -29 33l189 876h-175q-32 0 -32 17zM694 180l160 756q4 18 11 24.5t20 6.5h8q32 0 27 -31l-160 -754q-19 -84 8.5 -115.5t87.5 -29.5q1 0 1 -5t-1.5 -11.5t-6 -13.5t-15 -12t-25.5 -5q-67 0 -102 46 t-13 144zM913 1280q0 26 14 42.5t38 16.5q51 0 51 -36q0 -26 -13.5 -44t-37.5 -18q-52 0 -52 39z" />
<glyph unicode="&#xfb02;" horiz-adv-x="976" d="M115 922q0 20 14 34q7 7 27 7h178l24 118q15 68 36.5 121t54.5 99t82.5 71t113.5 25q102 0 158 -56q22 -22 22 -43q0 -11 -6 -20.5t-13 -12.5t-9 -1q-19 35 -60.5 55t-95.5 20q-51 0 -89.5 -22t-63.5 -62.5t-40.5 -83t-27.5 -98.5l-23 -110h232q30 0 30 -17 q0 -23 -12 -35q-6 -6 -26 -6h-236l-186 -876q-5 -33 -31 -33h-6q-34 0 -29 33l189 876h-175q-32 0 -32 17zM694 180l248 1172q4 18 11.5 25t19.5 7h8q35 0 27 -32l-248 -1170q-19 -84 8.5 -115.5t87.5 -29.5q1 0 1 -5t-1.5 -11.5t-6 -13.5t-15 -12t-25.5 -5q-67 0 -102 46 t-13 144z" />
<glyph horiz-adv-x="2048" />
<glyph horiz-adv-x="2048" />
<glyph unicode="&#xd;" horiz-adv-x="2048" />
<glyph unicode=" "  horiz-adv-x="372" />
<glyph unicode="&#x09;" horiz-adv-x="372" />
<glyph unicode="&#xa0;" horiz-adv-x="372" />
<glyph unicode="!" horiz-adv-x="448" d="M74 33q0 41 20 61q15 15 41 15q55 0 55 -41q0 -43 -20 -60q-16 -16 -41 -16q-26 0 -40.5 11t-14.5 30zM180 373l176 919q3 22 11.5 29.5t25.5 7.5q29 0 40 -9t3 -34l-215 -921q-7 -23 -20 -23q-15 0 -19.5 7t-1.5 24z" />
<glyph unicode="&#x22;" horiz-adv-x="630" d="M256 905l61 373q6 51 43 51q28 0 38 -12.5t1 -44.5l-96 -369q-9 -29 -24 -29q-16 0 -21 6.5t-2 24.5zM510 905l59 373q3 27 13.5 39t31.5 12q28 0 37.5 -12.5t-0.5 -44.5l-96 -369q-9 -29 -25 -29q-14 0 -18.5 6.5t-1.5 24.5z" />
<glyph unicode="#" horiz-adv-x="1277" d="M45 412q0 22 12 34q5 7 27 7h254l129 419h-242q-30 0 -30 15q0 21 12 37q9 6 29 6h247l121 395q3 6 19 4.5t25.5 -18t-3.5 -62.5l-98 -319h379l121 395q3 6 18.5 4.5t25 -18t-3.5 -62.5l-98 -319h246q31 0 31 -17t-13 -34q-7 -7 -28 -7h-252l-129 -419h239q31 0 31 -15 q0 -26 -12 -35q-5 -8 -27 -8h-250l-118 -395q-3 -6 -19 -4.5t-25.5 18t3.5 62.5l98 319h-381l-121 -395q-3 -6 -18.5 -4.5t-25 18t2.5 62.5l98 319h-243q-31 0 -31 17zM399 453h383l129 419h-383z" />
<glyph unicode="$" horiz-adv-x="1079" d="M39 262q0 17 10 27t20 12.5t13 -0.5q26 -93 110.5 -163t229.5 -89l129 600q-60 23 -102 43t-88 51t-73.5 64.5t-46 81t-18.5 104.5q0 149 118.5 249.5t309.5 100.5q17 0 45 -4l31 144q8 33 29 33h6q32 0 24 -33l-30 -148q156 -23 258 -121q63 -66 63 -118q0 -16 -10 -26 t-20 -12t-13 -1q-26 78 -101 139t-194 80l-123 -580q64 -25 107.5 -45t92.5 -51.5t77.5 -65t48 -82t19.5 -106.5q0 -164 -117 -264t-326 -100q-35 0 -51 2l-33 -148q-5 -33 -28 -33h-7q-32 0 -24 33l33 156q-186 24 -293 131q-36 36 -56 74t-20 65zM291 999 q0 -56 19.5 -99.5t60.5 -76.5t85 -56t111 -50l119 565q-6 0 -19 1t-20 1q-159 0 -257.5 -81.5t-98.5 -203.5zM475 43q7 0 23 -1t24 -1q176 0 272.5 82t96.5 219q0 55 -21 99t-64.5 78t-89.5 58t-116 52z" />
<glyph unicode="%" horiz-adv-x="1404" d="M51 18q0 19 39 58l1313 1263q2 1 8.5 -1t12.5 -9t6 -16q0 -24 -37 -58l-1315 -1263q-2 -2 -8.5 0.5t-12.5 9.5t-6 16zM201 1010q0 134 91 232.5t224 98.5q105 0 178.5 -71t73.5 -185q0 -134 -90.5 -231.5t-224.5 -97.5q-104 0 -178 70.5t-74 183.5zM258 1014 q0 -90 59.5 -147.5t141.5 -57.5q106 0 179 81t73 193q0 90 -58.5 147.5t-140.5 57.5q-106 0 -180 -81t-74 -193zM713 244q0 134 90.5 231.5t224.5 97.5q105 0 178.5 -70t73.5 -184q0 -134 -90.5 -231.5t-224.5 -97.5q-104 0 -178 70.5t-74 183.5zM770 246q0 -88 59.5 -146.5 t139.5 -58.5q106 0 180 82t74 194q0 90 -58.5 147.5t-140.5 57.5q-106 0 -180 -82t-74 -194z" />
<glyph unicode="&#x26;" horiz-adv-x="1294" d="M39 336q0 162 117 274t342 156q-84 119 -84 238q0 139 93 239t236 100q126 0 201.5 -73.5t75.5 -186.5q0 -151 -107.5 -233.5t-314.5 -116.5l342 -461q101 112 154.5 233t56.5 214q3 2 14 3t24 -10.5t13 -29.5q0 -84 -57 -210.5t-168 -244.5l43 -61q58 -76 101.5 -100.5 t97.5 -18.5q1 0 2.5 -5.5t0.5 -13.5t-6 -15.5t-17.5 -13t-31.5 -5.5q-52 0 -93 27.5t-97 99.5l-45 63q-97 -94 -223 -148t-263 -54q-187 0 -297 99t-110 255zM104 336q0 -127 93.5 -211t257.5 -84q246 0 442 186l-367 492q-213 -37 -319.5 -138.5t-106.5 -244.5zM479 1008 q0 -111 84 -230q99 16 166.5 37.5t121 56t79.5 86t26 123.5q0 89 -59 147t-160 58q-114 0 -186 -83.5t-72 -194.5z" />
<glyph unicode="'" horiz-adv-x="378" d="M256 905l61 373q6 51 43 51q28 0 38 -12.5t1 -44.5l-96 -369q-9 -29 -24 -29q-16 0 -21 6.5t-2 24.5z" />
<glyph unicode="(" horiz-adv-x="718" d="M113 246q0 257 96.5 497.5t255.5 399.5q94 94 193.5 143t170.5 49q21 0 29 -12.5t4 -26t-12 -16.5q-180 -15 -342 -180q-148 -148 -238 -380t-90 -474q0 -158 44 -287t124 -209q73 -73 156 -96q5 -2 6.5 -14.5t-7 -24.5t-28.5 -12q-30 0 -78.5 25.5t-99.5 76.5 q-86 86 -135 226.5t-49 314.5z" />
<glyph unicode=")" horiz-adv-x="718" d="M-146.5 -357.5q3.5 13.5 11.5 17.5q176 12 342 178q149 149 238.5 381t89.5 475q0 157 -44 285.5t-124 210.5q-74 71 -156 96q-4 1 -5.5 13t6.5 24t28 12q30 0 78.5 -25.5t99.5 -76.5q86 -85 135 -225t49 -314q0 -257 -96.5 -498.5t-255.5 -400.5q-93 -93 -193 -141.5 t-172 -48.5q-21 0 -28 12t-3.5 25.5z" />
<glyph unicode="*" horiz-adv-x="772" d="M227 1126q0 33 35 25l230 -70l4 242q2 15 7 21t17 6q23 0 23 -27l4 -242l231 70q33 9 33 -25q0 -13 -18 -18l-228 -80l140 -199q15 -21 2 -30q-22 -22 -41 4l-146 190l-147 -190q-19 -26 -41 -4q-13 9 2 30l139 199l-227 80q-19 5 -19 18z" />
<glyph unicode="+" horiz-adv-x="1028" d="M94 528q0 25 12 37q9 6 27 6h371l78 369q4 19 11 26t19 7h9q29 0 22 -33l-78 -369h367q31 0 31 -16q0 -20 -15 -35q-4 -6 -26 -6h-369l-84 -397q-4 -18 -11 -24.5t-20 -6.5h-8q-29 0 -24 31l83 397h-364q-31 0 -31 14z" />
<glyph unicode="," horiz-adv-x="358" d="M-117 -240q13 23 34 60.5t66 117t74.5 132t28.5 51.5q4 1 17.5 0.5t28.5 -10t15 -25.5q0 -23 -22 -51l-209 -297q-6 -8 -22.5 2t-10.5 20z" />
<glyph unicode="-" horiz-adv-x="690" d="M88 508q0 23 12 35q8 8 29 8h459q15 0 24 -5.5t9 -13.5q0 -19 -15 -34q-9 -9 -28 -9h-459q-31 0 -31 19z" />
<glyph unicode="." horiz-adv-x="358" d="M29 33q0 41 20 61q15 15 41 15q55 0 55 -41q0 -43 -20 -60q-13 -16 -41 -16q-26 0 -40.5 11t-14.5 30z" />
<glyph unicode="/" horiz-adv-x="636" d="M-147 -356q0 19 16 51l848 1632q3 1 13.5 1t23 -8.5t12.5 -23.5q0 -17 -16 -49l-848 -1634q-3 0 -13.5 -0.5t-23 8t-12.5 23.5z" />
<glyph unicode="0" horiz-adv-x="1259" d="M141 459q0 66 9.5 130.5t37.5 192.5q128 559 551 559q112 0 200 -36t143.5 -100.5t84.5 -151t29 -189.5q0 -65 -10 -130t-39 -193q-61 -266 -196.5 -412.5t-352.5 -146.5q-112 0 -200 36.5t-143.5 101t-84.5 151t-29 188.5zM209 459q0 -185 101.5 -301.5t287.5 -116.5 q191 0 310 134t173 374q47 203 47 315q0 187 -102.5 303.5t-288.5 116.5q-366 0 -483 -508q-45 -206 -45 -317z" />
<glyph unicode="1" horiz-adv-x="667" d="M190 1174q0 12 7 23t14 16.5t10 5.5q26 -54 121 -54q69 0 128.5 47.5t72.5 116.5h28q16 0 22.5 -10.5t0.5 -30.5l-266 -1259q-8 -33 -35 -33h-8q-34 0 -25 35l246 1157q-30 -40 -79 -65t-101 -25q-82 0 -117 35q-19 19 -19 41z" />
<glyph unicode="2" horiz-adv-x="1030" d="M14 49q0 214 142 359q120 120 389 217q122 44 195 78.5t129 79t79 97.5t23 126q0 121 -91.5 197.5t-250.5 76.5q-139 0 -232.5 -70.5t-140.5 -183.5q-3 -3 -12.5 -0.5t-19 12t-9.5 25.5q0 18 24.5 64t61.5 83q133 133 332 133q188 0 297.5 -93t109.5 -244 q0 -70 -19.5 -126t-54 -98.5t-96 -81t-130 -69.5t-171.5 -68q-128 -47 -214.5 -93.5t-151.5 -111.5q-115 -115 -121 -297h758q39 0 39 -24q0 -6 -3.5 -15.5t-7 -15.5t-4.5 -6h-817q-9 0 -21 16t-12 33z" />
<glyph unicode="3" horiz-adv-x="1036" d="M-8 291q0 19 11.5 32t22.5 13.5t15 -0.5q13 -118 121 -206.5t289 -88.5q182 0 289.5 101t107.5 249q0 125 -84.5 202t-243.5 77h-139q-31 0 -31 16q0 23 12 35q4 6 27 6h148q205 0 305 83t100 220q0 107 -91.5 180.5t-234.5 73.5q-119 0 -222 -54t-152 -134q-7 -2 -22 8 t-15 26q0 25 45 70q63 65 159.5 104t211.5 39q172 0 281.5 -86.5t109.5 -226.5q0 -138 -89.5 -229t-250.5 -111q119 -26 183.5 -104.5t64.5 -192.5q0 -80 -31 -153.5t-89.5 -131t-150 -92t-203.5 -34.5q-115 0 -210 36t-154 95q-46 46 -68 95.5t-22 82.5z" />
<glyph unicode="4" horiz-adv-x="1126" d="M53 459q0 30 37 67l780 768q41 41 76 41q57 0 47 -49l-172 -813h215q33 0 33 -16q0 -25 -14 -39q-4 -6 -29 -6h-219l-80 -383q-4 -20 -11.5 -26.5t-23.5 -6.5h-6q-32 0 -24 35l79 381h-665q-2 0 -7.5 6.5t-10.5 18.5t-5 22zM121 473h635l170 799z" />
<glyph unicode="5" horiz-adv-x="1052" d="M35 262q0 15 10 25.5t20.5 13.5t12.5 0q29 -110 138 -184t265 -74q129 0 225 58.5t142.5 149.5t46.5 198q0 139 -96.5 219t-276.5 80q-160 0 -299 -74q-46 8 -37 55l115 547q12 49 57 49h723q6 -6 6 -22q0 -14 -11.5 -26.5t-33.5 -12.5h-677l-111 -519q127 62 274 62 q203 0 321 -97t118 -257q0 -93 -32.5 -177t-92.5 -150t-154.5 -105t-208.5 -39q-115 0 -209.5 36.5t-156.5 98.5q-78 78 -78 145z" />
<glyph unicode="6" horiz-adv-x="1159" d="M137 442q0 62 13.5 154t41.5 203.5t82 221.5t123 179q72 72 156 107.5t199 35.5q191 0 303 -112q32 -32 48.5 -68t16.5 -55q0 -15 -9.5 -26t-19.5 -14t-14 -1q-28 94 -115.5 155.5t-218.5 61.5q-411 0 -522 -663q62 75 169.5 125.5t240.5 50.5q189 0 303.5 -95.5 t114.5 -255.5q0 -94 -36.5 -179.5t-99.5 -148t-151 -99.5t-187 -37q-196 0 -317 117.5t-121 342.5zM201 440q0 -194 102 -295.5t275 -101.5q176 0 290.5 114t114.5 287q0 133 -95.5 214t-264.5 81q-134 0 -245 -56t-169 -138q-8 -49 -8 -105z" />
<glyph unicode="7" horiz-adv-x="991" d="M142.5 23q-5.5 18 23.5 59l858 1178h-780q-41 0 -41 24q0 7 3.5 17.5t7.5 17t5 6.5h842q3 0 10 -6.5t14 -19.5t7 -27q0 -24 -27 -60l-881 -1216q-5 -4 -20.5 2.5t-21 24.5z" />
<glyph unicode="8" d="M61 319q0 149 117 256t309 127q-118 27 -178.5 96t-60.5 167q0 160 131.5 269t337.5 109q183 0 297 -86.5t114 -224.5q0 -134 -98.5 -230.5t-275.5 -117.5q140 -31 211 -114t71 -187q0 -176 -141.5 -288.5t-368.5 -112.5q-214 0 -339.5 92.5t-125.5 244.5zM129 322 q0 -127 106.5 -205t292.5 -78q198 0 319.5 95t121.5 249q0 122 -105.5 200.5t-296.5 78.5q-196 0 -317 -95t-121 -245zM317 967q0 -113 94.5 -179.5t256.5 -66.5q179 0 285 84t106 221q0 118 -95 189t-257 71q-176 0 -283 -89.5t-107 -229.5z" />
<glyph unicode="9" horiz-adv-x="1159" d="M98 223q0 15 9.5 26t20 14.5t13.5 0.5q28 -95 118 -159t224 -64q413 0 529 643q-62 -75 -171 -125.5t-239 -50.5q-193 0 -304.5 95.5t-111.5 264.5q0 200 137 337.5t336 137.5q197 0 319 -118t122 -342q0 -62 -13.5 -153t-42 -201.5t-82.5 -220t-124 -179.5 q-73 -73 -160 -110t-203 -37q-195 0 -309 114q-32 32 -50 70t-18 57zM252 870q0 -142 93 -223.5t265 -81.5q132 0 243 56.5t171 138.5q10 68 10 125q0 194 -102 295.5t-273 101.5q-178 0 -292.5 -115.5t-114.5 -296.5z" />
<glyph unicode=":" horiz-adv-x="395" d="M47 33q0 37 21 61q15 15 41 15q55 0 55 -41t-19 -60q-16 -16 -43 -16q-26 0 -40.5 11t-14.5 30zM207 784q0 43 20 60q14 14 41 14q56 0 56 -41t-21 -59q-14 -17 -41 -17q-55 0 -55 43z" />
<glyph unicode=";" horiz-adv-x="395" d="M-98 -240q13 23 34 60.5t65.5 117t74 132t28.5 51.5q4 1 18 0.5t29 -10t15 -25.5q0 -21 -21 -51l-211 -297q-6 -8 -21 2t-11 20zM207 784q0 43 20 60q14 14 41 14q56 0 56 -41t-21 -59q-14 -17 -41 -17q-55 0 -55 43z" />
<glyph unicode="&#x3c;" horiz-adv-x="929" d="M100 535q0 38 45 59l738 375q5 2 13.5 -8.5t8.5 -24.5q0 -24 -47 -47l-692 -350l534 -344q43 -23 39 -50q-1 -14 -10 -23t-14 -7l-588 379q-27 15 -27 41z" />
<glyph unicode="=" horiz-adv-x="1028" d="M68 295q0 23 12 39q9 6 29 6h747q33 0 33 -16q0 -25 -12 -37q-8 -8 -29 -8h-750q-30 0 -30 16zM162 737q0 23 12 39q9 6 29 6h747q33 0 33 -16q0 -25 -12 -37q-8 -8 -29 -8h-747q-33 0 -33 16z" />
<glyph unicode="&#x3e;" horiz-adv-x="929" d="M49 147q0 26 47 48l692 350l-536 344q-41 24 -37 49q1 9 6 17.5t10.5 12t8.5 1.5l587 -379q27 -15 27 -41q0 -39 -45 -60l-737 -374q-5 -2 -14 8t-9 24z" />
<glyph unicode="?" horiz-adv-x="927" d="M193 1057q0 25 25 72t67 88q123 126 319 126q170 0 273.5 -91.5t103.5 -239.5q0 -144 -82.5 -231.5t-224.5 -137.5q-154 -53 -209 -95t-55 -95q0 -34 21 -56.5t61 -25.5q1 -1 1 -8.5t-9.5 -16t-26.5 -8.5q-48 0 -79.5 33t-31.5 80q0 75 61.5 128t227.5 113 q138 48 208 123t70 197q0 121 -85 195.5t-228 74.5q-132 0 -228.5 -73.5t-133.5 -188.5q-4 -2 -14.5 0.5t-20.5 12.5t-10 24zM264 33q0 40 21 61q15 15 41 15q55 0 55 -41q0 -42 -21 -60q-13 -16 -41 -16q-26 0 -40.5 11t-14.5 30z" />
<glyph unicode="@" horiz-adv-x="1484" d="M127 569q0 152 55.5 293t151 247t234 170t294.5 64q269 0 431.5 -147.5t162.5 -394.5q0 -118 -39 -220t-113.5 -166.5t-168.5 -64.5q-82 0 -129 42t-52 110q-83 -150 -249 -150q-104 0 -173 69.5t-69 182.5q0 89 39.5 169.5t112.5 131.5t161 51q87 0 147 -46t78 -115 l21 90q10 61 51 61q9 0 16 -3.5t7 -6.5l-74 -346q-20 -89 13 -139t108 -50q112 0 186 121.5t74 276.5q0 223 -150.5 359t-396.5 136q-143 0 -270 -60t-215 -159.5t-139.5 -231t-51.5 -272.5q0 -154 67.5 -275t200 -192t310.5 -71q106 0 206 31.5t162 78.5q22 15 39 15 q11 0 21 -15t6 -20q-70 -59 -189 -100t-249 -41q-291 0 -459 163.5t-168 423.5zM526 610q0 -91 56 -147.5t139 -56.5q91 0 158.5 61t85.5 145l22 105q-8 81 -63 133.5t-146 52.5q-107 0 -179.5 -88.5t-72.5 -204.5z" />
<glyph unicode="A" horiz-adv-x="1200" d="M-50 20q-2 4 -2 10q0 18 19 52l742 1225q14 26 45 26q23 0 33.5 -8t15.5 -27l270 -1282q-1 -8 -17 -16q-9 -4 -18 -4q-8 0 -17 3q-19 7 -24 38l-92 448h-618l-291 -487q-2 -2 -7 -2t-14 2q-17 4 -25 22zM322 545h571l-145 710z" />
<glyph unicode="B" horiz-adv-x="1196" d="M70 51l260 1231q9 43 55 43h358q198 0 298 -73t100 -214q0 -138 -80 -232t-254 -120q285 -51 285 -280q0 -90 -27.5 -161.5t-86.5 -127.5t-161 -86.5t-242 -30.5h-464q-42 0 -42 37q0 6 1 14zM139 61h443q232 0 336 88.5t104 256.5q0 122 -93 184.5t-263 62.5h-400z M279 713h393q201 0 300 88.5t99 230.5q-3 232 -334 232h-342z" />
<glyph unicode="C" horiz-adv-x="1318" d="M129 541q0 160 54.5 307t148.5 256t228 174t286 65q238 0 379 -141q45 -45 68.5 -98.5t23.5 -89.5q0 -26 -18 -36.5t-29 -6.5q-28 140 -138 226.5t-290 86.5q-181 0 -329 -101t-230 -269.5t-82 -364.5q0 -232 137 -369t364 -137q90 0 167.5 23.5t132 63.5t91.5 82.5 t62 90.5q2 2 10.5 -1t16.5 -12.5t8 -21.5q0 -19 -21.5 -56.5t-66.5 -82.5q-66 -66 -170.5 -106.5t-229.5 -40.5q-260 0 -416.5 151.5t-156.5 407.5z" />
<glyph unicode="D" horiz-adv-x="1304" d="M72 51l262 1231q6 43 53 43h213q309 0 480 -147.5t171 -411.5q0 -163 -53 -302t-153 -243t-255 -162.5t-348 -58.5h-327q-44 0 -44 37q0 6 1 14zM141 59h312q175 0 315 54t229 149t136 221.5t47 274.5q0 238 -153 373t-431 135h-199z" />
<glyph unicode="E" horiz-adv-x="1120" d="M72 51l262 1231q6 43 53 43h774q33 0 33 -16q0 -25 -14 -39q-4 -6 -29 -6h-754l-116 -553h563q33 0 33 -17q0 -20 -13 -37q-9 -6 -28 -6h-570l-125 -590h787q33 0 33 -16q0 -24 -13 -37q-6 -8 -30 -8h-803q-44 0 -44 37q0 6 1 14z" />
<glyph unicode="F" horiz-adv-x="1050" d="M68 31l266 1251q6 43 53 43h760q33 0 33 -16q0 -24 -15 -39q-4 -6 -28 -6h-740l-127 -598h545q31 0 31 -17q0 -23 -12 -35q-8 -8 -29 -8h-547l-123 -577q-4 -19 -12 -26t-23 -7h-8q-26 0 -26 22q0 5 2 13z" />
<glyph unicode="G" horiz-adv-x="1388" d="M131 555q0 152 53 295t145.5 252t228 175t290.5 66q242 0 389 -143q37 -39 58.5 -85t21.5 -77q0 -20 -11.5 -32.5t-21.5 -12.5h-14q-23 121 -136 205t-288 84q-139 0 -260.5 -60t-204.5 -159.5t-130.5 -230t-47.5 -271.5q0 -246 138 -383t361 -137q209 0 349 137 q74 74 109.5 156t66.5 233h-443q-32 0 -32 15q0 25 14 39q6 6 29 6h456q41 0 41 -32q0 -8 -2 -17l-123 -578q0 -4 -16 -4q-34 0 -34 41q0 14 5 35l37 174q-61 -120 -181 -192t-278 -72q-123 0 -227 38.5t-180.5 110t-119 180.5t-42.5 244z" />
<glyph unicode="H" horiz-adv-x="1339" d="M68 31l268 1265q9 33 35 33h8q33 0 24 -35l-127 -600h877l127 602q9 33 35 33h8q27 0 27 -22q0 -6 -2 -13l-271 -1265q-5 -33 -33 -33h-10q-31 0 -22 35l127 602h-875l-129 -604q-4 -19 -12 -26t-23 -7h-8q-26 0 -26 22q0 5 2 13z" />
<glyph unicode="I" horiz-adv-x="436" d="M88 31l270 1265q6 33 33 33h10q26 0 26 -25q0 -5 -1 -10l-270 -1265q-5 -33 -33 -33h-10q-26 0 -26 25q0 4 1 10z" />
<glyph unicode="J" horiz-adv-x="892" d="M-4 190q0 9 4 17t9.5 12.5t11.5 8t10.5 4t5.5 -0.5q29 -84 107 -137t184 -53q135 0 216 85.5t118 264.5l194 905q6 33 33 33h10q15 0 21 -10q4 -6 4 -13q0 -5 -2 -12l-193 -913q-43 -202 -141.5 -300.5t-261.5 -98.5q-167 0 -267 100q-31 31 -47 62.5t-16 45.5z" />
<glyph unicode="K" horiz-adv-x="1034" d="M68 31l268 1265q4 19 12 26t23 7h8q33 0 24 -35l-127 -602l814 645q3 0 9.5 -3t12.5 -10q6 -6 8 -16q1 -2 1 -5q-1 -7 -7 -19q-8 -14 -29 -31l-737 -577l410 -518q60 -76 94 -98q32 -20 76 -19h8q1 0 2 -5t-0.5 -12.5t-7 -14.5t-19.5 -12t-34 -5q-42 0 -79.5 29 t-101.5 112l-424 543l-137 -647q-4 -19 -12 -26t-23 -7h-8q-26 0 -26 22q0 6 2 13z" />
<glyph unicode="L" horiz-adv-x="966" d="M72 51l264 1245q9 33 35 33h8q33 0 24 -35l-262 -1233h656q32 0 32 -16q0 -25 -12 -37q-6 -8 -31 -8h-671q-44 0 -44 37q0 6 1 14z" />
<glyph unicode="M" horiz-adv-x="1492" d="M68 31l266 1251q9 47 55 47h14q23 0 33.5 -11.5t18.5 -39.5l280 -829l639 833q21 29 33.5 38t34.5 9h16q22 1 33 -13q9 -11 9 -26q0 -4 -1 -8l-266 -1253q-4 -19 -12 -26t-23 -7h-8q-31 0 -23 35l260 1220l-636 -827q-27 -39 -64 -39q-25 0 -36.5 11.5t-18.5 35.5 l-279 819l-260 -1222q-8 -33 -35 -33h-8q-24 0 -24 21q0 6 2 14z" />
<glyph unicode="N" horiz-adv-x="1363" d="M68 31l266 1253q9 45 47 45h16q16 0 25.5 -9.5t21.5 -31.5l609 -1190l256 1198q5 33 32 33h7q26 0 26 -22q0 -6 -2 -13l-268 -1257q-6 -41 -43 -41h-8q-27 0 -45 41l-619 1208l-258 -1216q-4 -18 -11.5 -25.5t-21.5 -7.5h-8q-24 0 -24 21q0 6 2 14z" />
<glyph unicode="O" horiz-adv-x="1480" d="M129 553q0 163 59.5 311t159 252t232 165.5t274.5 61.5q172 0 303 -74.5t200.5 -203t69.5 -291.5t-59.5 -311t-158.5 -252t-231.5 -165.5t-275.5 -61.5q-172 0 -303 74t-200.5 202.5t-69.5 292.5zM201 557q0 -225 138.5 -369.5t371.5 -144.5q126 0 244 56.5t206.5 152.5 t141.5 232t53 286q0 146 -60 262t-176.5 184t-271.5 68q-127 0 -245.5 -56.5t-206.5 -152.5t-141.5 -232t-53.5 -286z" />
<glyph unicode="P" horiz-adv-x="1097" d="M68 31l266 1251q6 43 53 43h291q218 0 331 -88.5t113 -251.5q0 -214 -136 -333.5t-390 -119.5h-354l-107 -503q-4 -19 -12 -26t-23 -7h-8q-26 0 -26 22q0 5 2 13zM254 592h354q213 0 329 102.5t116 282.5q0 140 -95.5 213.5t-283.5 73.5h-277z" />
<glyph unicode="Q" horiz-adv-x="1490" d="M129 553q0 163 60 311t159.5 252t233 165.5t276.5 61.5q260 0 414.5 -159t154.5 -410q0 -185 -72.5 -344.5t-199.5 -267.5l25 -31q47 -59 78 -77q29 -17 65 -17h8q1 0 1.5 -5.5t-1 -12.5t-5.5 -14.5t-15 -13t-27 -5.5q-40 0 -71 21t-80 83l-25 33q-184 -139 -408 -139 q-260 0 -415.5 159t-155.5 410zM201 557q0 -224 138 -369t368 -145q199 0 362 125l-262 338q-12 18 -12 29q0 8 10.5 18t19.5 10q16 0 31 -18l260 -334q111 99 175.5 245.5t64.5 313.5q0 224 -137.5 369t-368.5 145q-127 0 -246 -56.5t-207.5 -152.5t-142 -232t-53.5 -286z " />
<glyph unicode="R" horiz-adv-x="1128" d="M68 31l266 1251q6 43 53 43h305q214 0 325 -81.5t111 -235.5q0 -200 -130.5 -315t-372.5 -115h-123l305 -418q53 -75 87 -97q29 -19 73 -19q8 0 16 1q1 0 1.5 -5.5t-1.5 -13.5t-7.5 -15.5t-19.5 -13t-34 -5.5q-44 0 -81 28t-93 111l-324 447h-172l-117 -549 q-4 -19 -12 -26t-23 -7h-8q-26 0 -26 22q0 5 2 13zM264 637h363q215 0 323.5 98.5t108.5 265.5q0 128 -94.5 196.5t-276.5 68.5h-291z" />
<glyph unicode="S" horiz-adv-x="1079" d="M39 262q0 17 10 27t20 12.5t13 -0.5q31 -110 141.5 -185t298.5 -75q176 0 272.5 82t96.5 219q0 47 -17.5 87t-43.5 68t-72.5 55.5t-87 45.5t-103.5 43t-105 44.5t-91.5 51t-78.5 65.5t-49 83t-20 108q0 149 118.5 249.5t309.5 100.5q124 0 215.5 -36.5t147.5 -92.5 q63 -66 63 -118q0 -16 -10 -26t-20 -12t-13 -1q-29 94 -129 160.5t-258 66.5q-159 0 -257.5 -81.5t-98.5 -203.5q0 -49 17.5 -89.5t42.5 -68.5t72.5 -56t87 -45.5t105.5 -43.5q65 -26 106.5 -45t91.5 -51t78.5 -65t48.5 -82t20 -107q0 -164 -117 -264t-326 -100 q-137 0 -239.5 39.5t-163.5 101.5q-36 36 -56 74t-20 65z" />
<glyph unicode="T" horiz-adv-x="1136" d="M215 1280q0 25 12 37q6 8 31 8h977q33 0 33 -16q0 -24 -15 -39q-4 -6 -28 -6h-457l-262 -1235q-5 -33 -33 -33h-10q-31 0 -25 35l262 1233h-452q-33 0 -33 16z" />
<glyph unicode="U" horiz-adv-x="1275" d="M162 563l155 733q6 33 33 33h10q31 0 25 -35l-158 -737q-18 -88 -19 -161q0 -141 69 -225q104 -128 341 -128q177 0 289.5 109.5t157.5 320.5l176 823q6 33 33 33h8q27 0 27 -22q0 -6 -2 -13l-177 -833q-103 -479 -518 -479q-268 0 -390 146q-81 97 -81 256q0 82 21 179z " />
<glyph unicode="V" horiz-adv-x="1193" d="M205 1309q1 7 17 15.5t35 2t24 -36.5l245 -1220l744 1259q2 -1 10 1h4q7 0 14 -4q10 -5 16 -12q4 -5 4 -15q0 -5 -1 -11q-3 -18 -17 -43l-735 -1227q-18 -24 -45 -24q-25 0 -35.5 8t-13.5 25z" />
<glyph unicode="W" horiz-adv-x="1742" d="M274 1315q1 7 18 13q6 2 12 2l22 -6q17 -10 18 -38l47 -1225l545 992q11 21 22.5 29t34.5 8q51 0 54 -50l143 -977l563 1264q1 1 9 1h3q7 0 15 -2q10 -2 17 -10q6 -7 6 -21q0 -20 -13 -50l-553 -1225q-12 -28 -53 -28q-47 0 -51 37l-146 995l-553 -1004q-9 -16 -19.5 -22 t-31.5 -6q-51 0 -51 39z" />
<glyph unicode="X" horiz-adv-x="1128" d="M-56 19q-1 2 -1 5q0 16 26 44l592 608l-309 629q0 10 13 19t31 5.5t28 -26.5l288 -588l596 622q6 0 18 -7q14 -7 20 -25q1 -3 1 -7q0 -17 -26 -41l-578 -595l242 -486q43 -86 79 -112q27 -19 65 -19q12 0 26 2q1 0 1.5 -6.5t-1.5 -15.5t-7 -17.5t-19 -15t-34 -6.5 q-48 0 -86.5 35t-81.5 124l-235 480l-610 -637q-4 -2 -19 6t-19 25z" />
<glyph unicode="Y" horiz-adv-x="1069" d="M184 1305q0 3 5 9t14 10t18.5 5t20 -6.5t18.5 -24.5l315 -655l592 688h4q7 0 19 -5q15 -6 21 -24q1 -3 1 -6q0 -19 -30 -53l-584 -665l-117 -549q-8 -33 -37 -33h-8q-30 0 -22 33l118 557z" />
<glyph unicode="Z" horiz-adv-x="1128" d="M-20 47q0 33 38 68l1104 1149h-829q-41 0 -41 24q0 11 6.5 24t9.5 13h906q5 0 14.5 -15.5t9.5 -31.5q0 -29 -39 -68l-1106 -1149h869q41 0 41 -24q0 -11 -6.5 -24t-10.5 -13h-944q-2 0 -7.5 6.5t-10 18.5t-4.5 22z" />
<glyph unicode="[" horiz-adv-x="657" d="M8 -336l344 1618q10 43 54 43h329q33 0 33 -16q0 -25 -14 -35q-5 -8 -27 -8h-315l-340 -1594h313q31 0 31 -16q0 -25 -13 -35q-8 -8 -26 -8h-328q-53 0 -41 51z" />
<glyph unicode="\" horiz-adv-x="636" d="M215 1260q-3 40 6 54.5t29 14.5q6 0 12.5 -1.5t10 -3.5t3.5 -3l152 -1640q5 -70 -33 -70q-26 0 -26 10z" />
<glyph unicode="]" horiz-adv-x="657" d="M-115 -371q0 22 13 35q8 8 28 8h316l338 1594h-314q-30 0 -30 16q0 24 14 35q5 8 26 8h328q50 0 41 -51l-344 -1618q-10 -43 -53 -43h-332q-31 0 -31 16z" />
<glyph unicode="^" horiz-adv-x="1024" d="M389 948q0 15 27.5 48t103.5 108q44 43 81 75t52.5 43t18.5 11t13 -10.5t32 -41.5t47 -75q74 -125 74 -148q0 -28 -25 -28q-13 0 -30 24.5t-60 106.5l-59 113l-107 -115q-74 -77 -104.5 -103t-44.5 -26q-19 0 -19 18z" />
<glyph unicode="_" horiz-adv-x="899" d="M-88 -45q0 25 12 37q8 8 31 8h782q33 0 33 -16q0 -25 -12 -37q-8 -8 -31 -8h-782q-33 0 -33 16z" />
<glyph unicode="`" horiz-adv-x="1024" d="M481 1341q0 11 9.5 20t21.5 9q24 0 86 -57q63 -56 108.5 -104t62 -72t13.5 -27q-4 -4 -29.5 6.5t-81 47t-120.5 91.5q-44 38 -57 55t-13 31z" />
<glyph unicode="a" d="M86 401q0 110 40 215t108 185.5t166 130t208 49.5q153 0 256.5 -83t128.5 -200l43 199q7 38 19 54t32 16q6 0 13 -2t10.5 -4t3.5 -3l-166 -776q-7 -33 -7 -58q0 -38 16 -56q26 -31 83 -31q1 0 1.5 -5t-1 -11.5t-6 -13.5t-14.5 -12t-25 -5q-65 0 -99 46q-21 28 -22 76 q0 30 9 68l8 39q-67 -115 -170 -176t-225 -61q-178 0 -294 113.5t-116 305.5zM154 403q0 -165 98 -264.5t252 -99.5q155 0 276 110t150 252l41 191q-14 143 -110.5 237.5t-256.5 94.5q-128 0 -233 -76t-161 -194.5t-56 -250.5z" />
<glyph unicode="b" horiz-adv-x="1148" d="M43 4l287 1348q6 32 30 32h9q34 0 26 -32l-129 -604q64 108 163.5 170.5t225.5 62.5q178 0 296 -115.5t118 -312.5q0 -147 -65 -277.5t-184.5 -212t-264.5 -81.5q-155 0 -259 84.5t-132 203.5l-43 -204q-7 -38 -19.5 -54t-33.5 -16q-6 0 -12 1.5t-9.5 3.5t-3.5 3z M201 440q-7 -32 -7 -64q0 -38 10 -77q18 -71 62 -129t121 -94.5t172 -36.5q127 0 230 74t157.5 191t54.5 249q0 168 -99.5 269.5t-252.5 101.5q-137 0 -243.5 -81t-161.5 -204z" />
<glyph unicode="c" horiz-adv-x="1036" d="M82 416q0 109 40.5 211.5t110 180t168 124.5t207.5 47q195 0 312 -117q39 -39 59 -88t20 -84q0 -18 -11.5 -29t-22.5 -11.5t-15 1.5q-11 113 -101 192t-241 79q-97 0 -183.5 -42.5t-146 -112.5t-94 -161t-34.5 -186q0 -176 104.5 -277.5t271.5 -101.5q119 0 205 57.5 t133 141.5q7 2 23 -6.5t16 -26.5q0 -35 -63 -98q-53 -53 -135 -90t-185 -37q-188 0 -313 115.5t-125 318.5z" />
<glyph unicode="d" d="M90 410q0 148 64.5 278t183.5 211.5t264 81.5q155 0 258 -81.5t133 -201.5l140 654q5 32 30 32h8q28 0 28 -24q0 -4 -1 -8l-250 -1170q-8 -35 -8 -60q0 -36 16 -54q26 -31 84 -31q1 0 1.5 -5t-1 -11.5t-6 -13.5t-14.5 -12t-25 -5q-65 0 -99 46q-21 28 -22 76q0 30 9 68 l6 33q-68 -112 -166.5 -171.5t-220.5 -59.5q-177 0 -294.5 116t-117.5 312zM156 410q0 -167 100 -269t254 -102q153 0 271 106.5t147 247.5l43 197q-16 145 -114.5 239.5t-258.5 94.5q-127 0 -230 -74t-157.5 -191t-54.5 -249z" />
<glyph unicode="e" horiz-adv-x="1036" d="M82 369q0 164 77 304.5t214 224t301 83.5q152 0 238.5 -66.5t86.5 -164.5q0 -49 -15 -89t-54 -77t-100.5 -61.5t-160 -39t-227.5 -14.5q-131 0 -284 14q-11 -68 -11 -110q0 -152 90.5 -243t256.5 -91q232 0 348 172q2 2 10.5 -1t16.5 -11.5t8 -18.5q0 -25 -48 -76 q-122 -122 -337 -122q-195 0 -302.5 107t-107.5 280zM172 541q142 -17 264 -17q496 0 496 226q0 70 -69 122t-193 52q-173 0 -309.5 -108.5t-188.5 -274.5z" />
<glyph unicode="f" horiz-adv-x="602" d="M115 922q0 20 14 34q7 7 27 7h178l24 118q15 68 36.5 121t54.5 99t82.5 71t113.5 25q102 0 158 -56q22 -22 22 -43q0 -11 -6 -20.5t-13 -12.5t-9 -1q-19 35 -60.5 55t-95.5 20q-51 0 -89.5 -22t-63.5 -62.5t-40.5 -83t-27.5 -98.5l-23 -110h232q30 0 30 -17 q0 -23 -12 -35q-6 -6 -26 -6h-236l-186 -876q-5 -33 -31 -33h-6q-34 0 -29 33l189 876h-175q-32 0 -32 17z" />
<glyph unicode="g" horiz-adv-x="1146" d="M8 -145q0 19 11 31.5t21.5 15.5t14.5 2q22 -104 114.5 -173t254.5 -69q176 0 279 94.5t145 288.5l43 203q-64 -107 -165 -168.5t-230 -61.5q-110 0 -202.5 48t-150 145t-57.5 225q0 105 39 204.5t106.5 174.5t164.5 120.5t206 45.5q153 0 256.5 -83t128.5 -200l43 197 q7 40 19 56t34 16q6 0 12 -2t9.5 -4t3.5 -3l-197 -919q-45 -217 -166 -326.5t-327 -109.5q-219 0 -340 121q-35 35 -52.5 73t-17.5 58zM152 436q0 -162 103.5 -261t248.5 -99q155 0 274 102t150 240l37 174q-13 142 -111.5 237t-255.5 95q-127 0 -230.5 -69.5t-159.5 -181 t-56 -237.5z" />
<glyph unicode="h" horiz-adv-x="1093" d="M49 29l281 1323q4 18 11 25t19 7h9q34 0 26 -32l-131 -615q150 244 395 244q146 0 234 -86t88 -229q0 -84 -57 -320q-45 -172 -45 -223q0 -84 94 -88q1 0 1 -4.5t-1.5 -11t-5.5 -13.5t-13.5 -11.5t-23.5 -4.5q-50 0 -83.5 31.5t-33.5 91.5q0 66 45 241q55 222 55 301 q0 124 -71 194.5t-193 70.5q-134 0 -231 -72.5t-174 -206.5l-129 -612q-8 -33 -31 -33h-8q-28 0 -28 23q0 4 1 10z" />
<glyph unicode="i" horiz-adv-x="374" d="M92 180l160 756q5 31 31 31h8q31 0 26 -31l-159 -754q-8 -34 -7 -60q-1 -38 15 -56q26 -30 81 -29h7q1 0 1 -5t-1.5 -11.5t-6 -13.5t-15 -12t-25.5 -5q-67 0 -102 46q-21 29 -21 77q0 30 8 67zM311 1280q0 26 13.5 42.5t37.5 16.5q52 0 52 -36q0 -26 -14 -44t-38 -18 q-51 0 -51 39z" />
<glyph unicode="j" horiz-adv-x="374" d="M-336 -313q0 10 6.5 20t13 15t7.5 4q51 -66 145 -66q146 0 187 203l229 1073q5 31 31 31h8q31 0 26 -31l-231 -1086q-27 -125 -92.5 -187t-159.5 -62q-96 0 -153 51q-17 17 -17 35zM311 1280q0 26 13.5 42.5t37.5 16.5q52 0 52 -36q0 -26 -14 -44t-38 -18q-51 0 -51 39z " />
<glyph unicode="k" horiz-adv-x="847" d="M49 29l281 1323q6 32 30 32h9q13 0 21 -8t5 -24l-178 -832l631 455q6 3 18 -6q11 -8 10 -24v-6q-2 -21 -34 -46l-551 -391l287 -342q61 -80 95 -98q29 -16 76 -15h15q1 0 2 -6t-1 -14.5t-7.5 -16.5t-19 -14t-33.5 -6q-46 0 -82.5 28t-106.5 121l-301 365l-100 -475 q-8 -33 -31 -33h-8q-28 0 -28 23q0 4 1 10z" />
<glyph unicode="l" horiz-adv-x="374" d="M92 180l248 1172q4 18 11.5 25t19.5 7h8q28 0 28 -21q0 -5 -1 -11l-248 -1170q-8 -34 -7 -60q-1 -38 15 -56q26 -30 81 -29h7q1 0 1 -5t-1.5 -11.5t-6 -13.5t-15 -12t-25.5 -5q-67 0 -102 46q-21 29 -21 77q0 30 8 67z" />
<glyph unicode="m" horiz-adv-x="1755" d="M49 29l199 934q0 4 16 4q37 0 37 -42q0 -13 -4 -30l-27 -135q69 104 165 162.5t214 58.5q115 0 197.5 -71.5t91.5 -186.5q61 118 164.5 188t245.5 70q133 0 217 -84.5t84 -222.5q0 -51 -13 -118t-47 -210q-45 -172 -45 -223q0 -84 94 -88q1 0 1 -4.5t-1.5 -11t-5.5 -13.5 t-13.5 -11.5t-23.5 -4.5q-50 0 -83 31.5t-33 91.5q0 66 45 241q57 225 57 310q0 119 -67 187.5t-175 68.5q-254 0 -389 -267l-133 -624q-7 -33 -35 -33h-8q-29 0 -22 33l120 565q9 42 9 79q0 89 -50 155q-71 92 -192 92q-126 0 -219 -65.5t-170 -190.5l-135 -635 q-7 -33 -37 -33h-6q-24 0 -24 22q0 5 1 11z" />
<glyph unicode="n" horiz-adv-x="1093" d="M49 29l199 934q0 4 16 4q37 0 37 -42q0 -13 -4 -30l-33 -158q148 244 395 244q146 0 234 -86t88 -229q0 -84 -57 -320q-45 -172 -45 -223q0 -84 94 -88q1 0 1 -4.5t-1.5 -11t-5.5 -13.5t-13.5 -11.5t-23.5 -4.5q-50 0 -83.5 31.5t-33.5 91.5q0 66 45 241q55 222 55 301 q0 124 -71 194.5t-193 70.5q-134 0 -231 -72.5t-174 -206.5l-129 -612q-8 -33 -31 -33h-8q-28 0 -28 23q0 4 1 10z" />
<glyph unicode="o" horiz-adv-x="1138" d="M84 418q0 154 73 284t195 204.5t264 74.5q191 0 315 -124t124 -312q0 -115 -43 -219.5t-115.5 -179.5t-170.5 -119.5t-204 -44.5q-190 0 -314 124t-124 312zM152 420q0 -162 104.5 -271.5t269.5 -109.5q90 0 175 39.5t148.5 106t101.5 160.5t38 198q0 163 -106 272 t-271 109q-90 0 -174.5 -39.5t-147 -106t-100.5 -160.5t-38 -198z" />
<glyph unicode="p" horiz-adv-x="1148" d="M-33 -356l281 1319q0 4 16 4q37 0 37 -42q0 -13 -4 -30l-31 -147q64 108 163.5 170.5t225.5 62.5q178 0 296 -115.5t118 -312.5q0 -147 -65 -277.5t-184.5 -212t-264.5 -81.5q-156 0 -261 85.5t-130 202.5l-131 -626q-4 -18 -11 -24.5t-20 -6.5h-8q-28 0 -28 21q0 5 1 10 zM201 440q-7 -32 -7 -64q0 -38 10 -77q18 -71 62 -129t121 -94.5t172 -36.5q127 0 230 74t157.5 191t54.5 249q0 168 -99.5 269.5t-252.5 101.5q-137 0 -243.5 -81t-161.5 -204z" />
<glyph unicode="q" d="M90 410q0 148 64.5 278t183.5 211.5t264 81.5q154 0 257.5 -81t133.5 -198l43 195q7 38 19 54t32 16q6 0 13 -2t10.5 -4t3.5 -3l-280 -1314q-4 -18 -11 -24.5t-20 -6.5h-8q-32 0 -27 31l123 571q-64 -108 -163.5 -170.5t-225.5 -62.5q-177 0 -294.5 116t-117.5 312z M156 410q0 -167 100 -269t254 -102q153 0 271 106.5t147 247.5l43 197q-16 146 -112.5 240t-260.5 94q-127 0 -230 -74t-157.5 -191t-54.5 -249z" />
<glyph unicode="r" horiz-adv-x="653" d="M49 29l199 934q0 4 16 4q37 0 37 -42q0 -13 -4 -30l-33 -162q104 248 297 248q58 0 99.5 -24.5t41.5 -51.5q0 -14 -6 -24.5t-11.5 -14.5t-8.5 -4q-46 58 -133 58q-119 0 -205.5 -120.5t-132.5 -342.5l-90 -428q-8 -33 -31 -33h-8q-28 0 -28 23q0 4 1 10z" />
<glyph unicode="s" horiz-adv-x="890" d="M12 193q0 18 15 28t22 8q36 -79 133.5 -134.5t225.5 -55.5q141 0 219 56.5t78 148.5q0 33 -15.5 60.5t-32 44.5t-59 37.5t-64 29t-80.5 28.5q-9 3 -14 5q-55 18 -89 31.5t-78.5 37t-70 49t-43.5 64t-18 84.5q0 111 94 188.5t246 77.5q106 0 190 -32.5t134 -84.5 q47 -50 47 -84q0 -12 -9 -21.5t-17.5 -11t-12.5 0.5q-31 77 -124 127.5t-212 50.5q-125 0 -198.5 -60.5t-73.5 -142.5q0 -26 8.5 -49t19.5 -40t35.5 -34.5t41.5 -28t53 -25.5t54.5 -22t61.5 -22q54 -18 87 -31t76 -35.5t67 -46t41.5 -59.5t17.5 -78q0 -121 -97 -195.5 t-268 -74.5q-105 0 -195.5 35t-144.5 89q-51 48 -51 87z" />
<glyph unicode="t" horiz-adv-x="649" d="M113 922q0 20 14 34q7 7 27 7h147l37 170q7 39 19.5 55t33.5 16q5 0 11.5 -2t10 -4.5t3.5 -3.5q0 1 -12 -57l-24 -116l-13 -58h292q31 0 31 -17q0 -23 -12 -35q-6 -6 -27 -6h-297l-127 -594q-12 -57 -12 -102q0 -170 166 -170q42 0 81.5 19.5t61.5 50.5q2 0 6 -4t7.5 -12 t3.5 -17q0 -20 -19 -39q-58 -55 -149 -55q-129 0 -187 84q-37 53 -36 138q0 48 12 107l127 594h-146q-30 0 -30 17z" />
<glyph unicode="u" horiz-adv-x="1093" d="M119 244q-5 32 -5 67q0 61 15 133l104 492q5 31 29 31h8q34 0 27 -31l-104 -496q-13 -65 -13 -119q0 -30 4 -56q11 -75 50 -124t96.5 -73.5t130.5 -24.5q124 0 216 64.5t167 191.5l133 637q4 18 11 24.5t20 6.5h8q27 0 27 -21q0 -4 -1 -10l-159 -754q-7 -33 -7 -58 q0 -38 16 -56q26 -31 83 -31q1 0 1.5 -5t-1 -11.5t-6 -13.5t-14.5 -12t-25 -5q-66 0 -100 46q-21 28 -22 76q0 30 9 68l6 25q-136 -223 -370 -223q-88 0 -157.5 29.5t-116 88t-60.5 144.5z" />
<glyph unicode="v" horiz-adv-x="911" d="M43 926q-1 4 1 10q2 8 6 16t15 13.5t27 5.5q52 0 92 -37q51 -54 72 -211l98 -657l568 899q5 5 20 -1q14 -6 20 -22q2 -4 2 -9q0 -17 -16 -46l-547 -854q-15 -23 -26.5 -31t-30.5 -8q-41 0 -47 49l-104 684q-18 109 -52 150t-96 41q-2 0 -2 8z" />
<glyph unicode="w" horiz-adv-x="1359" d="M88 936q0 11 13 22q14 13 40 13q51 0 88 -37q54 -54 54 -201v-16l-2 -649l399 694q13 25 26 33t35 8q25 0 37.5 -12.5t16.5 -42.5l88 -680l438 899q2 4 18 0.5t24 -19.5q3 -5 3 -13q0 -17 -12 -46l-422 -856q-20 -39 -60 -39q-41 0 -49 55l-92 678l-403 -694 q-13 -23 -26 -31t-34 -8q-49 0 -49 51v676q0 113 -32.5 155t-96.5 44z" />
<glyph unicode="x" horiz-adv-x="913" d="M-37 24q0 17 29 48l418 411l-248 459q-4 9 13 20q11 7 21 7q19 0 38 -24q5 -7 10 -17l213 -408l454 453q3 0 10 -2t15 -8q6 -7 10 -15l2 -6q0 -7 -4 -17q-6 -15 -26 -34l-429 -420l158 -291q45 -85 83 -110q31 -20 77 -20q11 0 22 1q1 0 2 -6t-1 -14.5t-7 -16.5t-18 -14 t-33 -6q-53 0 -94.5 36t-93.5 142l-142 262l-444 -444h-2q-5 0 -16 6q-17 10 -17 28z" />
<glyph unicode="y" horiz-adv-x="905" d="M-178 -324q0 9 6 18t12.5 13t9.5 2q17 -23 47 -36t60 -13q56 0 111 44t135 161l127 192q-31 2 -37 45l-103 625q-17 105 -51.5 148t-95.5 43q-1 0 -1.5 5.5t0.5 13t5.5 15.5t16 13.5t28.5 5.5q48 0 86 -35q58 -58 78 -213l98 -631l557 873q2 0 10 1t16 -4t13 -12 q4 -5 4 -14v-10q-3 -16 -16 -37l-674 -1039q-93 -146 -158 -197.5t-147 -51.5q-80 0 -123 43q-14 11 -14 32z" />
<glyph unicode="z" horiz-adv-x="917" d="M-14 39q0 28 32 57l826 811h-631q-39 0 -39 23q0 6 3 14.5t6.5 13.5t4.5 5h707q1 0 5.5 -6t8.5 -15.5t4 -17.5q0 -29 -32 -58l-826 -809h658q39 0 39 -24q0 -8 -7 -20.5t-10 -12.5h-731q-4 0 -11 13.5t-7 25.5z" />
<glyph unicode="{" horiz-adv-x="774" d="M53 485q5 25 14.5 36t41.5 24l192 96q85 344 256 518q85 85 176.5 129.5t140.5 44.5q18 0 25 -12t3.5 -25.5t-11.5 -17.5q-167 -39 -295 -164q-152 -152 -238 -514l-249 -119l192 -155q-32 -199 -2 -349t115 -237q65 -65 133 -86q4 -4 5 -16t-7 -23.5t-27 -11.5 q-57 0 -149 92q-96 96 -132 255t-8 349l-143 119q-24 18 -30.5 31t-2.5 36z" />
<glyph unicode="|" horiz-adv-x="444" d="M12 -352l350 1648q9 33 35 33h9q13 0 18.5 -9t1.5 -26l-348 -1650q-5 -18 -12.5 -24.5t-24.5 -6.5h-6q-13 0 -19.5 9t-3.5 26z" />
<glyph unicode="}" horiz-adv-x="774" d="M-135 -358q4 14 12 18q173 41 293 164q155 155 240 512l247 121l-190 153q32 200 2 350.5t-115 235.5q-66 66 -133 88q-5 2 -6.5 14.5t6.5 24.5t27 12q57 0 151 -94q96 -96 132 -255t6 -347l145 -121q24 -17 29.5 -30t1.5 -37q-3 -23 -13 -34t-43 -24l-190 -98 q-87 -349 -258 -516q-85 -85 -176.5 -130.5t-138.5 -45.5q-19 0 -26 12.5t-3 26.5z" />
<glyph unicode="~" horiz-adv-x="1021" d="M238 373q42 184 157 184q41 0 72 -21.5t63 -60.5q28 -37 48.5 -52t46.5 -15q59 0 90 96q14 43 37 43q12 0 22 -10q-40 -185 -156 -185q-41 0 -72 21.5t-63 60.5q-23 26 -34.5 38t-27.5 21t-34 9q-57 0 -90 -96q-8 -25 -16 -34.5t-21 -9.5q-7 0 -22 11z" />
<glyph unicode="&#xa1;" horiz-adv-x="448" d="M88 39l217 922q6 22 19 22q15 0 20 -7t2 -24l-176 -919q-4 -22 -12.5 -29.5t-26.5 -7.5q-27 0 -38 8.5t-5 34.5zM336 1257q0 42 18 60q16 16 41 16q27 0 42.5 -11t15.5 -30q0 -36 -21 -61q-14 -14 -41 -14q-55 0 -55 40z" />
<glyph unicode="&#xa2;" horiz-adv-x="1054" d="M113 510q0 146 68 275t192.5 209.5t275.5 78.5l49 240q8 33 29 33h8q30 0 25 -33l-51 -244q142 -16 239 -113q39 -39 59.5 -88.5t20.5 -83.5q0 -19 -11.5 -30t-22.5 -11t-15 2q-9 102 -85.5 178t-199.5 89l-186 -875q14 -2 47 -2q119 0 206 57.5t132 139.5q7 4 23 -4.5 t16 -26.5q0 -36 -64 -100q-54 -52 -135 -88.5t-184 -36.5q-17 0 -53 4l-52 -248q-8 -33 -28 -33h-6q-32 0 -27 33q3 16 9 42.5t18 82t19.5 92.5t6.5 37q-146 34 -234.5 143t-88.5 281zM178 514q0 -147 75 -243.5t200 -125.5l186 871q-99 0 -187 -43.5t-147 -114t-93 -160.5 t-34 -184z" />
<glyph unicode="&#xa3;" horiz-adv-x="1120" d="M-2 16q0 23 12 39q6 6 31 6h143l146 498h-197q-31 0 -31 19q0 21 13 34q9 9 28 9h203l78 268q70 244 168 351.5t256 107.5q146 0 229 -86q31 -31 48.5 -67.5t17.5 -59.5q0 -19 -11.5 -31t-21.5 -12h-14q-20 95 -87.5 146.5t-164.5 51.5q-128 0 -209.5 -95t-145.5 -314 l-75 -260h413q31 0 31 -19t-12 -35q-8 -8 -29 -8h-420l-145 -498h702q39 0 39 -24q0 -10 -6.5 -23.5t-9.5 -13.5h-946q-33 0 -33 16z" />
<glyph unicode="&#xa4;" horiz-adv-x="1263" d="M78 492q0 25 12 34q9 9 29 9h172q11 126 51 266h-164q-31 0 -31 16q0 22 13 35q8 8 28 8h172q71 205 191 328q155 155 373 155q178 0 290 -112q32 -34 52 -78.5t20 -75.5q0 -17 -11 -28.5t-21 -12.5t-13 0q-25 110 -108 180t-218 70q-179 0 -319 -137 q-103 -103 -168 -289h502q31 0 31 -16q0 -25 -13 -35q-5 -8 -26 -8h-512q-43 -149 -50 -266h500q31 0 31 -17q0 -23 -12 -35q-4 -6 -27 -6h-494v-4q0 -200 101.5 -316t271.5 -116q116 0 207.5 59.5t140.5 151.5q7 2 21 -7.5t14 -27.5q0 -38 -67 -108q-56 -55 -140.5 -91 t-175.5 -36q-205 0 -323.5 128.5t-118.5 360.5v6h-180q-31 0 -31 15z" />
<glyph unicode="&#xa5;" horiz-adv-x="1099" d="M72 279q0 24 12 36q10 7 27 7h376l50 239h-373q-31 0 -31 14q0 25 14 35q5 8 27 8h356l-309 689q0 8 14.5 16.5t34 3.5t29.5 -31l285 -651l561 686q5 3 20.5 -3.5t20.5 -25t-29 -59.5l-524 -625h352q31 0 31 -16q0 -23 -12 -35q-4 -6 -27 -6h-377l-51 -239h375 q30 0 30 -17q0 -21 -14 -35q-4 -6 -27 -6h-376l-50 -235q-8 -33 -36 -33h-5q-27 0 -22 33l49 235h-371q-30 0 -30 15z" />
<glyph unicode="&#xa7;" horiz-adv-x="989" d="M-41 -61q0 15 9.5 26t19.5 14.5t14 2.5q24 -103 121 -171.5t266 -68.5q152 0 239 73t87 183q0 38 -15.5 70t-38.5 54t-66.5 44.5t-80.5 37t-100 36.5t-103 38t-87.5 42t-74 53.5t-45 67t-18.5 87.5q0 113 86.5 185t216.5 90q-78 39 -120 91t-42 130q0 134 108.5 226.5 t285.5 92.5q117 0 200 -35t131 -83q29 -29 45.5 -65.5t16.5 -57.5q0 -16 -9.5 -27t-20.5 -14t-15 0q-25 95 -117 159t-238 64t-233.5 -73.5t-87.5 -178.5q0 -38 16 -70t38.5 -54t67 -45t81 -37.5t100.5 -37.5q63 -23 102.5 -39t87 -42.5t74 -53t44.5 -65t18 -84.5 q0 -115 -88 -188t-218 -89q164 -77 164 -223q0 -139 -106.5 -229t-288.5 -90q-123 0 -214 33.5t-142 82.5q-70 70 -70 138zM150 539q0 -47 21.5 -84.5t67.5 -67t93.5 -50.5t122.5 -46q40 -11 92 -33q127 6 218 70.5t91 165.5q0 37 -16 68.5t-40.5 54.5t-66 45.5t-81 38 t-97.5 34.5q-45 12 -100 37q-129 -11 -217 -72.5t-88 -160.5z" />
<glyph unicode="&#xa8;" horiz-adv-x="1024" d="M446 1153q0 29 15.5 48.5t40.5 19.5q55 0 55 -43q0 -29 -14.5 -47.5t-40.5 -18.5q-56 0 -56 41zM756 1153q0 29 15 48.5t42 19.5q53 0 53 -43q0 -29 -14.5 -47.5t-40.5 -18.5q-55 0 -55 41z" />
<glyph unicode="&#xa9;" horiz-adv-x="1519" d="M135 659q0 194 85.5 350.5t237.5 245t341 88.5q193 0 344 -86t234 -240.5t83 -350.5q0 -194 -85.5 -350.5t-237 -245t-340.5 -88.5q-193 0 -344 86t-234.5 240.5t-83.5 350.5zM190 662q0 -275 171 -452t438 -177q175 0 313.5 80.5t215.5 224.5t77 326q0 275 -170.5 451.5 t-437.5 176.5q-266 0 -436.5 -177t-170.5 -453zM465 659q0 156 98.5 259.5t249.5 103.5q141 0 221 -80q47 -47 47 -86q0 -10 -8 -18.5t-16 -12t-10 -2.5q-24 62 -83.5 103t-150.5 41q-124 0 -204.5 -88.5t-80.5 -219.5q0 -132 79 -218.5t210 -86.5q101 0 158.5 46t79.5 108 q2 2 10.5 -0.5t16.5 -11t8 -19.5q0 -43 -56 -102q-76 -76 -217 -76q-159 0 -255.5 100.5t-96.5 259.5z" />
<glyph unicode="&#xaa;" horiz-adv-x="927" d="M147 879q0 118 53 224t150.5 173t214.5 67q122 0 202.5 -65t102.5 -162l31 154q8 34 19.5 48.5t31.5 14.5q9 0 16 -3.5t7 -6.5l-131 -618q-13 -64 6 -89.5t65 -27.5q1 0 1 -4t-2 -10t-5.5 -11.5t-12.5 -9.5t-22 -4q-54 0 -82 39t-10 117l6 34q-50 -94 -134 -145t-185 -51 q-136 0 -229 92.5t-93 243.5zM211 883q0 -127 77 -207t193 -80q125 0 219 86.5t119 198.5l33 151q-11 112 -87 185t-202 73q-102 0 -184 -59.5t-125 -152t-43 -195.5zM303 31q0 32 19 55q14 14 38 14q52 0 52 -39q0 -36 -19 -55q-17 -14 -39 -14q-51 0 -51 39z" />
<glyph unicode="&#xab;" horiz-adv-x="962" d="M92 504q0 3 19 20.5t69.5 56t120.5 87.5q119 83 160 108t59 25q11 0 18 -7.5t7 -17.5q0 -16 -42 -50t-159 -110q-130 -86 -188 -122l143 -132q95 -90 118 -115t23 -38q2 -9 -6 -17t-18 -8q-19 0 -53 28t-117 114q-154 160 -154 178zM459 496q0 13 219 170q116 81 161 108 t64 27q11 0 18 -6.5t7 -16.5q0 -32 -213 -170q-22 -14 -88.5 -57.5t-104.5 -67.5l135 -125q92 -88 113 -110.5t21 -36.5q0 -9 -8 -16t-19 -7q-19 0 -50 26t-112 110q-143 149 -143 172z" />
<glyph unicode="&#xad;" horiz-adv-x="690" d="M88 508q0 23 12 35q8 8 29 8h459q15 0 24 -5.5t9 -13.5q0 -19 -15 -34q-9 -9 -28 -9h-459q-31 0 -31 19z" />
<glyph unicode="&#xae;" horiz-adv-x="1519" d="M135 659q0 194 85.5 350.5t237.5 245t341 88.5q193 0 344 -86t234 -240.5t83 -350.5q0 -194 -85.5 -350.5t-237 -245t-340.5 -88.5q-193 0 -344 86t-234.5 240.5t-83.5 350.5zM190 662q0 -275 171 -452t438 -177q175 0 313.5 80.5t215.5 224.5t77 326q0 275 -170.5 451.5 t-437.5 176.5q-266 0 -436.5 -177t-170.5 -453zM573 348v635q0 39 35 39h199q127 0 193.5 -52.5t66.5 -152.5q0 -99 -66 -150t-176 -51h-37l277 -274q2 -3 -1.5 -9.5t-12 -12t-17.5 -5.5q-26 0 -45 25l-266 272h-88v-266q0 -14 -7.5 -22.5t-19.5 -8.5h-10q-25 0 -25 33z M633 664h178q96 0 145.5 40t49.5 113q0 75 -51 114.5t-150 39.5h-172v-307z" />
<glyph unicode="&#xaf;" horiz-adv-x="1024" d="M416 1176q0 22 12 34q9 9 29 9h420q32 0 32 -19t-12 -35q-8 -8 -29 -8h-419q-33 0 -33 19z" />
<glyph unicode="&#xb0;" horiz-adv-x="714" d="M209 1038q0 124 86.5 216t210.5 92q101 0 167 -65.5t66 -168.5q0 -123 -87 -215t-210 -92q-101 0 -167 65t-66 168zM266 1040q0 -79 52 -130.5t133 -51.5q97 0 164 75.5t67 176.5q0 78 -52.5 130t-133.5 52q-95 0 -162.5 -75.5t-67.5 -176.5z" />
<glyph unicode="&#xb1;" horiz-adv-x="1228" d="M164 297q0 21 12 33q5 10 27 10h751q33 0 33 -16q0 -23 -12 -35q-7 -10 -29 -10h-751q-31 0 -31 18zM322 844q0 23 10 33q5 8 26 8h308l65 307q9 33 31 33h8q30 0 25 -33l-66 -307h301q31 0 31 -17t-10 -32q-11 -11 -27 -11h-307l-66 -305q-8 -33 -28 -33h-11 q-30 0 -22 33l65 305h-303q-30 0 -30 19z" />
<glyph unicode="&#xb2;" horiz-adv-x="688" d="M53 625q3 119 82 198q66 66 213 119q129 46 180.5 87t51.5 112q0 63 -49 102t-132 39q-73 0 -124 -38t-76 -99q-2 -1 -10.5 -1t-17.5 8.5t-9 23.5q0 14 13 39.5t34 46.5q78 75 197 75q108 0 171.5 -53.5t63.5 -140.5q0 -93 -61 -144.5t-201 -101.5q-149 -52 -205 -111 q-60 -57 -63 -149h409q37 0 37 -23q0 -5 -3 -12.5t-6.5 -12.5t-4.5 -5h-463q-11 0 -19 12t-8 29z" />
<glyph unicode="&#xb3;" horiz-adv-x="688" d="M41 745q0 17 10.5 27t20.5 12t12 0q7 -65 64 -112t155 -47q94 0 151.5 52.5t57.5 129.5q0 64 -43.5 102.5t-126.5 38.5h-70q-26 0 -26 17q0 19 10 26q6 6 27 6h77q102 0 153.5 43t51.5 113q0 56 -48.5 94.5t-125.5 38.5q-65 0 -119 -30.5t-79 -73.5q-3 -1 -11 -0.5t-16 8 t-8 18.5q0 21 26 47q82 82 213 82q98 0 165 -51.5t67 -126.5q0 -79 -49.5 -127.5t-139.5 -62.5q64 -15 99.5 -58.5t35.5 -105.5q0 -97 -72 -164.5t-202 -67.5q-137 0 -211 74q-49 46 -49 98z" />
<glyph unicode="&#xb4;" horiz-adv-x="1024" d="M510 1110q-1 5 22 28t80.5 70t132.5 101q71 51 95 51q12 0 20 -8.5t8 -20.5t-17.5 -29.5t-70.5 -54.5q-78 -52 -143.5 -86.5t-94.5 -44.5t-32 -6z" />
<glyph unicode="&#xb6;" horiz-adv-x="1103" d="M170 934q0 85 27.5 154t84 123t152.5 84t225 30h254q53 0 41 -51l-264 -1245q-4 -19 -12 -26t-23 -7h-8q-31 0 -22 35l131 618h-158q-210 0 -319 72t-109 213zM786 31l269 1265q9 33 35 33h8q14 0 20 -10t2 -25l-268 -1265q-4 -18 -11.5 -25.5t-21.5 -7.5h-10 q-14 0 -20.5 9t-2.5 26z" />
<glyph unicode="&#xb7;" horiz-adv-x="391" d="M145 504q0 38 21 59q17 17 41 17q55 0 55 -43q0 -42 -18 -60q-14 -14 -43 -14q-56 0 -56 41z" />
<glyph unicode="&#xb8;" horiz-adv-x="1024" d="M174 -399l209 307q1 3 15 -0.5t28 -13.5t14 -25q0 -24 -24 -51l-211 -240q-6 -7 -21 4t-10 19z" />
<glyph unicode="&#xb9;" horiz-adv-x="688" d="M61 606q0 7 5 17q10 16 32 16h191l127 588q-25 -29 -62.5 -47.5t-74.5 -18.5q-38 0 -62.5 17.5t-26.5 44.5q0 12 6.5 22t13 14t7.5 3q17 -43 80 -43q46 0 89 31t56 79h27q29 0 23 -33l-144 -657h178q12 0 20 -6.5t7 -16.5q0 -10 -6 -16q-5 -16 -31 -16h-428q-14 0 -21 6 t-6 16z" />
<glyph unicode="&#xba;" horiz-adv-x="890" d="M152 891q0 123 58.5 227.5t157 164.5t212.5 60q155 0 253.5 -98.5t98.5 -251.5q0 -188 -126 -319t-302 -131q-154 0 -253 98t-99 250zM215 891q0 -125 82 -210t211 -85q146 0 254 116.5t108 280.5q0 125 -83 210t-212 85q-144 0 -252 -116.5t-108 -280.5zM297 31 q0 33 18 55q14 14 39 14q52 0 52 -39q0 -36 -19 -55q-17 -14 -39 -14q-51 0 -51 39z" />
<glyph unicode="&#xbb;" horiz-adv-x="962" d="M41 209q0 29 211 168l194 125q-22 19 -42.5 38.5t-47 44.5t-45.5 42q-89 83 -111 107.5t-22 39.5q0 9 7.5 16t19.5 7q19 0 48.5 -24.5t111.5 -108.5q48 -49 82.5 -88.5t47.5 -58.5t13 -25q0 -3 -21 -22t-74 -60t-124 -91q-115 -81 -161 -108t-65 -27q-22 0 -22 25z M424 211q0 15 42 49t159 109q27 18 63.5 43t66 44.5t58.5 37.5q-79 69 -143 131q-123 115 -135 132q-9 11 -9 21q0 9 7.5 16t19.5 7q19 0 53 -28t117 -114q51 -52 87 -92.5t50 -60t14 -25.5q0 -3 -18.5 -20t-68.5 -55.5t-121 -88.5q-111 -79 -155.5 -105t-64.5 -26 q-22 0 -22 25z" />
<glyph unicode="&#xbc;" horiz-adv-x="1622" d="M61 606q0 7 5 17q10 16 32 16h191l127 588q-25 -29 -62.5 -47.5t-74.5 -18.5q-38 0 -62.5 17.5t-26.5 44.5q0 12 6.5 22t13 14t7.5 3q17 -43 80 -43q46 0 89 31t56 79h27q29 0 23 -33l-144 -657h178q12 0 20 -6.5t7 -16.5q0 -10 -6 -16q-5 -16 -31 -16h-428q-14 0 -21 6 t-6 16zM166 2q3 15 10.5 25.5t28.5 29.5q9 10 144 138.5t289 275t189 180.5l701 666q3 -1 7.5 -3t11.5 -10.5t5 -19.5q-3 -20 -36 -53q-4 -4 -289 -274.5t-336 -321.5l-698 -664q-2 -2 -9.5 1.5t-13.5 12t-4 17.5zM989 260q0 20 29 53l403 406q19 19 30 25t32 6q55 0 43 -48 l-90 -428h110q27 0 27 -16q0 -21 -10 -31q-9 -6 -25 -6h-115l-41 -194q-8 -31 -28 -31h-8q-32 0 -23 33l41 192h-354q-2 0 -7 5.5t-9.5 15t-4.5 18.5zM1047 274h331l90 426z" />
<glyph unicode="&#xbd;" horiz-adv-x="1622" d="M61 606q0 7 5 17q10 16 32 16h191l127 588q-25 -29 -62.5 -47.5t-74.5 -18.5q-38 0 -62.5 17.5t-26.5 44.5q0 12 6.5 22t13 14t7.5 3q17 -43 80 -43q46 0 89 31t56 79h27q29 0 23 -33l-144 -657h178q12 0 20 -6.5t7 -16.5q0 -10 -6 -16q-5 -16 -31 -16h-428q-14 0 -21 6 t-6 16zM125 2q3 15 10.5 25.5t28.5 29.5q9 10 144 138.5t289 275t189 180.5l701 666q3 -1 7.5 -3t11.5 -10.5t5 -19.5q-3 -20 -36 -53q-4 -4 -289 -274.5t-336 -321.5l-698 -664q-2 -2 -9.5 1.5t-13.5 12t-4 17.5zM987 41q3 120 82 199q64 64 213 118q128 46 179.5 87 t51.5 112q0 63 -48.5 102t-131.5 39q-73 0 -124 -38t-76 -99q-2 -1 -10.5 -1t-17.5 8.5t-9 23.5q0 14 13 39.5t34 46.5q80 76 196 76q108 0 172 -54t64 -141q0 -93 -61 -144.5t-201 -101.5q-76 -27 -123.5 -51t-81.5 -59q-61 -58 -64 -150h410q37 0 37 -22q0 -5 -3 -13 t-6.5 -13t-4.5 -5h-463q-11 0 -19 12t-8 29z" />
<glyph unicode="&#xbe;" horiz-adv-x="1622" d="M41 745q0 17 10.5 27t20.5 12t12 0q7 -65 64 -112t155 -47q94 0 151.5 52.5t57.5 129.5q0 64 -43.5 102.5t-126.5 38.5h-70q-26 0 -26 17q0 19 10 26q6 6 27 6h77q102 0 153.5 43t51.5 113q0 56 -48.5 94.5t-125.5 38.5q-65 0 -119 -30.5t-79 -73.5q-3 -1 -11 -0.5t-16 8 t-8 18.5q0 21 26 47q82 82 213 82q98 0 165 -51.5t67 -126.5q0 -79 -49.5 -127.5t-139.5 -62.5q64 -15 99.5 -58.5t35.5 -105.5q0 -97 -72 -164.5t-202 -67.5q-137 0 -211 74q-49 46 -49 98zM166 2q3 15 10.5 25.5t28.5 29.5q9 10 144 138.5t289 275t189 180.5l701 666 q3 -1 7.5 -3t11.5 -10.5t5 -19.5q-3 -20 -36 -53q-4 -4 -289 -274.5t-336 -321.5l-698 -664q-2 -2 -9.5 1.5t-13.5 12t-4 17.5zM989 260q0 20 29 53l403 406q19 19 30 25t32 6q55 0 43 -48l-90 -428h110q27 0 27 -16q0 -21 -10 -31q-9 -6 -25 -6h-115l-41 -194 q-8 -31 -28 -31h-8q-32 0 -23 33l41 192h-354q-2 0 -7 5.5t-9.5 15t-4.5 18.5zM1047 274h331l90 426z" />
<glyph unicode="&#xbf;" horiz-adv-x="927" d="M20 311q0 260 308 369q154 53 209 95t55 95q0 33 -21.5 56t-60.5 26q-1 1 -1 8.5t9.5 16t26.5 8.5q48 0 79 -33t31 -80q0 -76 -61 -128t-227 -111q-140 -50 -209.5 -125t-69.5 -197q0 -121 85 -195.5t228 -74.5q132 0 229 73.5t134 188.5q4 2 14.5 -0.5t20.5 -12.5 t10 -24q0 -24 -25.5 -71.5t-66.5 -88.5q-121 -124 -320 -124q-170 0 -273.5 91t-103.5 238zM621 1255q0 41 18 62q14 14 43 14q55 0 55 -41q0 -38 -20 -61q-15 -15 -41 -15q-55 0 -55 41z" />
<glyph unicode="&#xc0;" horiz-adv-x="1200" d="M-50 19.5q-8 17.5 17 62.5l742 1225q14 26 45 26q23 0 33.5 -8t15.5 -27l270 -1282q-1 -8 -17 -16t-35 -1t-24 38l-92 448h-618l-291 -487q-4 -4 -21 0t-25 21.5zM322 545h571l-145 710zM524 1706q0 11 9.5 20t21.5 9q23 0 86 -58q63 -56 108.5 -104t62 -71.5t13.5 -26.5 q-4 -4 -29.5 6.5t-81 47t-120.5 91.5q-44 38 -57 55t-13 31z" />
<glyph unicode="&#xc1;" horiz-adv-x="1200" d="M-50 19.5q-8 17.5 17 62.5l742 1225q14 26 45 26q23 0 33.5 -8t15.5 -27l270 -1282q-1 -8 -17 -16t-35 -1t-24 38l-92 448h-618l-291 -487q-4 -4 -21 0t-25 21.5zM322 545h571l-145 710zM690 1475q-1 5 22.5 28t80.5 69.5t133 100.5q71 51 94 51q12 0 20.5 -8t8.5 -20 t-17.5 -29.5t-70.5 -54.5q-78 -52 -144 -86.5t-95 -44.5t-32 -6z" />
<glyph unicode="&#xc2;" horiz-adv-x="1200" d="M-50 19.5q-8 17.5 17 62.5l742 1225q14 26 45 26q23 0 33.5 -8t15.5 -27l270 -1282q-1 -8 -17 -16t-35 -1t-24 38l-92 448h-618l-291 -487q-4 -4 -21 0t-25 21.5zM322 545h571l-145 710zM543 1489q0 17 27 48.5t106 107.5q44 43 80.5 75t51.5 43t17 11q3 0 14 -10.5 t33.5 -42t47.5 -74.5q73 -127 73 -148q0 -12 -7.5 -20.5t-16.5 -8.5q-13 0 -31.5 25.5t-60.5 106.5q-28 56 -60 112q-15 -16 -46.5 -51t-59.5 -64q-72 -76 -103 -102.5t-45 -26.5q-9 0 -14.5 5.5t-5.5 13.5z" />
<glyph unicode="&#xc3;" horiz-adv-x="1200" d="M-50 19.5q-8 17.5 17 62.5l742 1225q14 26 45 26q23 0 33.5 -8t15.5 -27l270 -1282q-1 -8 -17 -16t-35 -1t-24 38l-92 448h-618l-291 -487q-4 -4 -21 0t-25 21.5zM322 545h571l-145 710zM520 1489q42 184 158 184q41 0 72 -21.5t63 -60.5q30 -37 49 -52t45 -15 q57 0 90 96q14 43 37 43q16 0 23 -10q-40 -185 -156 -185q-42 0 -73 22t-62 62q-32 37 -51 51.5t-45 14.5q-59 0 -90 -96q-8 -24 -16 -33.5t-21 -9.5t-23 10z" />
<glyph unicode="&#xc4;" horiz-adv-x="1200" d="M-50 19.5q-8 17.5 17 62.5l742 1225q14 26 45 26q23 0 33.5 -8t15.5 -27l270 -1282q-1 -8 -17 -16t-35 -1t-24 38l-92 448h-618l-291 -487q-4 -4 -21 0t-25 21.5zM322 545h571l-145 710zM569 1518q0 29 15 48t41 19q55 0 55 -43q0 -29 -14.5 -47t-40.5 -18q-56 0 -56 41z M879 1518q0 29 15 48t42 19q53 0 53 -43q0 -29 -14.5 -47t-40.5 -18q-55 0 -55 41z" />
<glyph unicode="&#xc5;" horiz-adv-x="1200" d="M-49 38.5q3 18.5 18 43.5l717 1186l14 20q-57 18 -87.5 64t-30.5 102q0 96 67 167t160 71q88 0 138 -52.5t50 -126.5q0 -87 -55.5 -154t-134.5 -79l6 -23l260 -1239q0 -7 -16 -15.5t-34.5 -2t-23.5 36.5l-92 448h-618l-293 -487q-1 1 -9.5 -0.5t-17 3.5t-15 12t-3.5 25.5 zM324 545h571l-145 710zM635 1456q0 -52 36.5 -93.5t100.5 -41.5q71 0 121.5 56t50.5 132q0 54 -36 95t-101 41q-71 0 -121.5 -56.5t-50.5 -132.5z" />
<glyph unicode="&#xc6;" horiz-adv-x="1722" d="M-50 18.5q-8 17.5 17 63.5l729 1204q22 39 64 39h989q33 0 33 -16q0 -24 -15 -39q-6 -6 -28 -6h-928l117 -555h553q30 0 30 -17q0 -23 -12 -35q-8 -8 -29 -8h-532l125 -588h467q31 0 31 -16q0 -24 -13 -37q-6 -8 -30 -8h-463q-28 0 -41 9.5t-19 35.5l-90 440h-618 l-291 -487q-4 -4 -21 -0.5t-25 21zM322 545h571l-145 710z" />
<glyph unicode="&#xc7;" horiz-adv-x="1318" d="M129 541q0 160 54.5 307t148.5 256t228 174t286 65q238 0 379 -141q45 -45 68.5 -98.5t23.5 -89.5q0 -26 -18 -36.5t-29 -6.5q-28 140 -138 226.5t-290 86.5q-181 0 -329 -101t-230 -269.5t-82 -364.5q0 -232 137 -369t364 -137q90 0 167.5 23.5t132 63.5t91.5 82.5 t62 90.5q2 2 10.5 -1t16.5 -12.5t8 -21.5q0 -19 -21.5 -56.5t-66.5 -82.5q-66 -66 -170.5 -106.5t-229.5 -40.5q-260 0 -416.5 151.5t-156.5 407.5zM428 -399l209 307q1 3 15 -0.5t28 -13.5t14 -25q0 -24 -24 -51l-211 -240q-6 -7 -21 4t-10 19z" />
<glyph unicode="&#xc8;" horiz-adv-x="1120" d="M72 51l262 1231q6 43 53 43h774q33 0 33 -16q0 -25 -14 -39q-4 -6 -29 -6h-754l-116 -553h563q33 0 33 -17q0 -20 -13 -37q-9 -6 -28 -6h-570l-125 -590h787q33 0 33 -16q0 -24 -13 -37q-6 -8 -30 -8h-803q-52 0 -43 51zM575 1706q0 11 9.5 20t21.5 9q23 0 86 -58 q63 -56 109 -104t62.5 -71.5t13.5 -26.5q-4 -4 -29.5 6.5t-81.5 47t-121 91.5q-44 38 -57 55t-13 31z" />
<glyph unicode="&#xc9;" horiz-adv-x="1120" d="M72 51l262 1231q6 43 53 43h774q33 0 33 -16q0 -25 -14 -39q-4 -6 -29 -6h-754l-116 -553h563q33 0 33 -17q0 -20 -13 -37q-9 -6 -28 -6h-570l-125 -590h787q33 0 33 -16q0 -24 -13 -37q-6 -8 -30 -8h-803q-52 0 -43 51zM680 1475q-1 5 22 28t80 69.5t133 100.5 q71 51 95 51q12 0 20 -8t8 -20t-17.5 -29.5t-70.5 -54.5q-78 -52 -143.5 -86.5t-94.5 -44.5t-32 -6z" />
<glyph unicode="&#xca;" horiz-adv-x="1120" d="M72 51l262 1231q6 43 53 43h774q33 0 33 -16q0 -25 -14 -39q-4 -6 -29 -6h-754l-116 -553h563q33 0 33 -17q0 -20 -13 -37q-9 -6 -28 -6h-570l-125 -590h787q33 0 33 -16q0 -24 -13 -37q-6 -8 -30 -8h-803q-52 0 -43 51zM573 1489q0 17 27 48t107 108q44 43 80.5 75 t51.5 43t17 11q3 0 13.5 -10.5t33 -42t47.5 -74.5q74 -129 74 -148q0 -12 -8 -20.5t-17 -8.5q-13 0 -31.5 25.5t-60.5 106.5q-38 75 -59 112q-14 -15 -46.5 -50t-60.5 -65q-72 -77 -102.5 -103t-44.5 -26q-9 0 -15 5.5t-6 13.5z" />
<glyph unicode="&#xcb;" horiz-adv-x="1120" d="M72 51l262 1231q6 43 53 43h774q33 0 33 -16q0 -25 -14 -39q-4 -6 -29 -6h-754l-116 -553h563q33 0 33 -17q0 -20 -13 -37q-9 -6 -28 -6h-570l-125 -590h787q33 0 33 -16q0 -24 -13 -37q-6 -8 -30 -8h-803q-52 0 -43 51zM600 1518q0 29 15 48t40 19q56 0 56 -43 q0 -28 -15 -46.5t-41 -18.5q-55 0 -55 41zM909 1518q0 29 15.5 48t42.5 19q53 0 53 -43q0 -29 -14.5 -47t-40.5 -18q-56 0 -56 41z" />
<glyph unicode="&#xcc;" horiz-adv-x="436" d="M88 31l270 1265q6 33 33 33h10q31 0 25 -35l-270 -1265q-5 -33 -33 -33h-10q-31 0 -25 35zM188 1706q0 11 9.5 20t21.5 9q23 0 86 -58q63 -56 108.5 -104t62 -71.5t13.5 -26.5q-4 -4 -29.5 6.5t-81 47t-120.5 91.5q-44 38 -57 55t-13 31z" />
<glyph unicode="&#xcd;" horiz-adv-x="436" d="M88 31l270 1265q6 33 33 33h10q31 0 25 -35l-270 -1265q-5 -33 -33 -33h-10q-31 0 -25 35zM352 1475q-1 5 22.5 28t80.5 69.5t133 100.5q71 51 94 51q12 0 20.5 -8t8.5 -20t-17.5 -29.5t-70.5 -54.5q-78 -52 -144 -86.5t-95 -44.5t-32 -6z" />
<glyph unicode="&#xce;" horiz-adv-x="436" d="M88 31l270 1265q6 33 33 33h10q31 0 25 -35l-270 -1265q-5 -33 -33 -33h-10q-31 0 -25 35zM203 1489q0 17 27 48.5t106 107.5q44 43 80.5 75t51.5 43t17 11q3 0 14 -10.5t33.5 -42t47.5 -74.5q73 -127 73 -148q0 -12 -7.5 -20.5t-16.5 -8.5q-13 0 -31.5 25.5t-60.5 106.5 q-28 56 -60 112q-15 -16 -46.5 -51t-59.5 -64q-72 -76 -103 -102.5t-45 -26.5q-9 0 -14.5 5.5t-5.5 13.5z" />
<glyph unicode="&#xcf;" horiz-adv-x="436" d="M88 31l270 1265q6 33 33 33h10q31 0 25 -35l-270 -1265q-5 -33 -33 -33h-10q-31 0 -25 35zM227 1518q0 29 15 48t41 19q55 0 55 -43q0 -29 -14.5 -47t-40.5 -18q-56 0 -56 41zM537 1518q0 29 15 48t42 19q53 0 53 -43q0 -29 -14.5 -47t-40.5 -18q-55 0 -55 41z" />
<glyph unicode="&#xd0;" horiz-adv-x="1409" d="M92 649q0 23 12 35q4 6 27 6h178l127 592q6 43 53 43h216q308 0 478.5 -148t170.5 -411q0 -163 -53 -302t-152.5 -242.5t-254 -162.5t-347.5 -59h-330q-53 0 -41 51l123 582h-176q-31 0 -31 16zM246 59h309q176 0 316 54t229.5 149t136.5 221.5t47 274.5 q-2 238 -154.5 373t-431.5 135h-198l-121 -576h485q31 0 31 -16q0 -19 -12 -35q-9 -6 -29 -6h-487z" />
<glyph unicode="&#xd1;" horiz-adv-x="1363" d="M68 31l266 1253q9 45 47 45h16q16 0 25.5 -9.5t21.5 -31.5l609 -1190l256 1198q5 33 32 33h7q33 0 24 -35l-268 -1257q-6 -41 -43 -41h-8q-27 0 -45 41l-619 1208l-258 -1216q-4 -18 -11.5 -25.5t-21.5 -7.5h-8q-31 0 -22 35zM645 1489q42 184 158 184q41 0 72 -21.5 t63 -60.5q30 -37 49 -52t45 -15q57 0 90 96q14 43 37 43q15 0 23 -10q-40 -185 -156 -185q-42 0 -73 22t-62 62q-32 37 -51 51.5t-45 14.5q-59 0 -90 -96q-8 -24 -16 -33.5t-21 -9.5t-23 10z" />
<glyph unicode="&#xd2;" horiz-adv-x="1480" d="M129 553q0 163 59.5 311t159 252t232 165.5t274.5 61.5q172 0 303 -74.5t200.5 -203t69.5 -291.5t-59.5 -311t-158.5 -252t-231.5 -165.5t-275.5 -61.5q-172 0 -303 74t-200.5 202.5t-69.5 292.5zM201 557q0 -225 138.5 -369.5t371.5 -144.5q126 0 244 56.5t206.5 152.5 t141.5 232t53 286q0 146 -60 262t-176.5 184t-271.5 68q-127 0 -245.5 -56.5t-206.5 -152.5t-141.5 -232t-53.5 -286zM684 1706q0 11 9.5 20t21.5 9q23 0 86 -58q63 -56 108.5 -104t62 -71.5t13.5 -26.5q-4 -4 -29.5 6.5t-81 47t-120.5 91.5q-44 38 -57 55t-13 31z" />
<glyph unicode="&#xd3;" horiz-adv-x="1480" d="M129 553q0 163 59.5 311t159 252t232 165.5t274.5 61.5q172 0 303 -74.5t200.5 -203t69.5 -291.5t-59.5 -311t-158.5 -252t-231.5 -165.5t-275.5 -61.5q-172 0 -303 74t-200.5 202.5t-69.5 292.5zM201 557q0 -225 138.5 -369.5t371.5 -144.5q126 0 244 56.5t206.5 152.5 t141.5 232t53 286q0 146 -60 262t-176.5 184t-271.5 68q-127 0 -245.5 -56.5t-206.5 -152.5t-141.5 -232t-53.5 -286zM772 1475q-1 5 22.5 28t80.5 69.5t133 100.5q71 51 94 51q12 0 20 -8t8 -20t-17.5 -29.5t-70.5 -54.5q-78 -52 -143.5 -86.5t-94.5 -44.5t-32 -6z" />
<glyph unicode="&#xd4;" horiz-adv-x="1480" d="M129 553q0 163 59.5 311t159 252t232 165.5t274.5 61.5q172 0 303 -74.5t200.5 -203t69.5 -291.5t-59.5 -311t-158.5 -252t-231.5 -165.5t-275.5 -61.5q-172 0 -303 74t-200.5 202.5t-69.5 292.5zM201 557q0 -225 138.5 -369.5t371.5 -144.5q126 0 244 56.5t206.5 152.5 t141.5 232t53 286q0 146 -60 262t-176.5 184t-271.5 68q-127 0 -245.5 -56.5t-206.5 -152.5t-141.5 -232t-53.5 -286zM686 1489q0 17 27 48.5t106 107.5q44 43 81 75t52 43t17 11q3 0 13.5 -10.5t33 -42t47.5 -74.5q74 -129 74 -148q0 -12 -8 -20.5t-17 -8.5 q-13 0 -31.5 25.5t-60.5 106.5q-38 75 -59 112q-14 -15 -46.5 -50t-60.5 -65q-72 -77 -102.5 -103t-44.5 -26q-9 0 -15 5.5t-6 13.5z" />
<glyph unicode="&#xd5;" horiz-adv-x="1480" d="M129 553q0 163 59.5 311t159 252t232 165.5t274.5 61.5q172 0 303 -74.5t200.5 -203t69.5 -291.5t-59.5 -311t-158.5 -252t-231.5 -165.5t-275.5 -61.5q-172 0 -303 74t-200.5 202.5t-69.5 292.5zM201 557q0 -225 138.5 -369.5t371.5 -144.5q126 0 244 56.5t206.5 152.5 t141.5 232t53 286q0 146 -60 262t-176.5 184t-271.5 68q-127 0 -245.5 -56.5t-206.5 -152.5t-141.5 -232t-53.5 -286zM618 1489q42 184 158 184q41 0 72 -21.5t63 -60.5q30 -36 49.5 -51.5t45.5 -15.5q57 0 90 96q14 43 37 43q15 0 22 -10q-40 -185 -156 -185q-42 0 -73 22 t-62 62q-32 37 -51 51.5t-45 14.5q-59 0 -90 -96q-8 -24 -16 -33.5t-21 -9.5t-23 10z" />
<glyph unicode="&#xd6;" horiz-adv-x="1480" d="M129 553q0 163 59.5 311t159 252t232 165.5t274.5 61.5q172 0 303 -74.5t200.5 -203t69.5 -291.5t-59.5 -311t-158.5 -252t-231.5 -165.5t-275.5 -61.5q-172 0 -303 74t-200.5 202.5t-69.5 292.5zM201 557q0 -225 138.5 -369.5t371.5 -144.5q126 0 244 56.5t206.5 152.5 t141.5 232t53 286q0 146 -60 262t-176.5 184t-271.5 68q-127 0 -245.5 -56.5t-206.5 -152.5t-141.5 -232t-53.5 -286zM707 1518q0 29 15 48t40 19q55 0 55 -43q0 -29 -14.5 -47t-40.5 -18q-55 0 -55 41zM1016 1518q0 29 15 48t42 19q53 0 53 -43q0 -29 -14.5 -47t-40.5 -18 q-55 0 -55 41z" />
<glyph unicode="&#xd7;" horiz-adv-x="1103" d="M173 226.5q-2 16.5 13 31.5l342 297l-219 299q-13 17 -6.5 33.5t22.5 17.5t31 -16l219 -295l338 293q17 14 33.5 7.5t18.5 -23t-13 -31.5l-340 -295l222 -301q13 -18 5.5 -34.5t-23.5 -17t-32 16.5l-219 297l-340 -295q-17 -14 -33.5 -7.5t-18.5 23z" />
<glyph unicode="&#xd8;" horiz-adv-x="1480" d="M12 -23q0 29 31 56l193 178q-107 145 -107 342q0 163 59.5 311t159 252t232 165.5t274.5 61.5q256 0 418 -165l203 188q2 2 9 -2t13 -13t6 -18q0 -29 -30 -55l-160 -150q114 -145 114 -354q0 -163 -59.5 -311t-158.5 -252t-231.5 -165.5t-275.5 -61.5q-134 0 -243.5 46.5 t-186.5 131.5l-231 -217q-2 -2 -9 2t-13.5 12.5t-6.5 17.5zM201 557q0 -173 86 -301l936 879q-136 149 -375 149q-127 0 -245.5 -56.5t-206.5 -152.5t-141.5 -232t-53.5 -286zM322 205q139 -162 389 -162q126 0 244 56.5t206.5 152.5t141.5 232t53 286q0 187 -96 315z" />
<glyph unicode="&#xd9;" horiz-adv-x="1275" d="M162 563l155 733q6 33 33 33h10q31 0 25 -35l-158 -737q-54 -258 50 -386t341 -128q177 0 289.5 109.5t157.5 320.5l176 823q6 33 33 33h8q34 0 25 -35l-177 -833q-103 -479 -518 -479q-267 0 -389.5 145.5t-60.5 435.5zM623 1686q0 11 9 19.5t21 8.5q24 0 86 -57 q63 -56 109 -104t62.5 -72t13.5 -27q-4 -4 -29.5 6.5t-81.5 47t-121 91.5q-43 37 -56 54.5t-13 32.5z" />
<glyph unicode="&#xda;" horiz-adv-x="1275" d="M162 563l155 733q6 33 33 33h10q31 0 25 -35l-158 -737q-54 -258 50 -386t341 -128q177 0 289.5 109.5t157.5 320.5l176 823q6 33 33 33h8q34 0 25 -35l-177 -833q-103 -479 -518 -479q-267 0 -389.5 145.5t-60.5 435.5zM723 1454q-1 5 22 28t80.5 70t132.5 101 q71 51 95 51q12 0 20 -8.5t8 -20.5t-17.5 -29.5t-70.5 -54.5q-78 -52 -143.5 -86.5t-94.5 -44.5t-32 -6z" />
<glyph unicode="&#xdb;" horiz-adv-x="1275" d="M162 563l155 733q6 33 33 33h10q31 0 25 -35l-158 -737q-54 -258 50 -386t341 -128q177 0 289.5 109.5t157.5 320.5l176 823q6 33 33 33h8q34 0 25 -35l-177 -833q-103 -479 -518 -479q-267 0 -389.5 145.5t-60.5 435.5zM618 1468q0 17 27 48t107 108q44 43 80.5 75 t51.5 43t17 11q3 0 13.5 -10.5t33 -42t47.5 -74.5q74 -129 74 -147q0 -12 -8 -20.5t-17 -8.5q-13 0 -31.5 25.5t-60.5 105.5q-44 86 -59 113q-14 -15 -46.5 -50t-60.5 -65q-72 -77 -102.5 -103t-44.5 -26q-9 0 -15 5t-6 13z" />
<glyph unicode="&#xdc;" horiz-adv-x="1275" d="M162 563l155 733q6 33 33 33h10q31 0 25 -35l-158 -737q-54 -258 50 -386t341 -128q177 0 289.5 109.5t157.5 320.5l176 823q6 33 33 33h8q34 0 25 -35l-177 -833q-103 -479 -518 -479q-267 0 -389.5 145.5t-60.5 435.5zM641 1497q0 29 15 48.5t40 19.5q56 0 56 -43 q0 -29 -15 -47.5t-41 -18.5q-55 0 -55 41zM950 1497q0 29 15.5 48.5t42.5 19.5q53 0 53 -43q0 -29 -14.5 -47.5t-40.5 -18.5q-56 0 -56 41z" />
<glyph unicode="&#xdd;" horiz-adv-x="1069" d="M184 1305q0 3 5 9t14 10t18.5 5t20 -6.5t18.5 -24.5l315 -655l592 688q7 2 22.5 -4.5t21.5 -25t-29 -58.5l-584 -665l-117 -549q-8 -33 -37 -33h-8q-30 0 -22 33l118 557zM641 1442q-1 5 22.5 28t80.5 69.5t133 100.5q73 52 94 52q12 0 20 -8.5t8 -20.5t-17.5 -29.5 t-70.5 -54.5q-78 -52 -143.5 -86.5t-94.5 -44.5t-32 -6z" />
<glyph unicode="&#xde;" horiz-adv-x="1114" d="M68 31l268 1265q4 19 12 26t23 7h8q33 0 24 -35l-49 -233h275q217 0 328.5 -89t111.5 -251q0 -201 -133 -321.5t-387 -120.5h-363l-51 -250q-4 -19 -12 -26t-23 -7h-8q-32 0 -24 35zM199 338h360q216 0 328 103.5t112 273.5q0 136 -94 210t-282 74h-283z" />
<glyph unicode="&#xdf;" horiz-adv-x="1028" d="M49 29l197 925q48 222 156.5 332.5t261.5 110.5q156 0 245.5 -82.5t89.5 -214.5q0 -158 -104 -248t-320 -96q168 -48 259.5 -141t91.5 -220q0 -171 -108 -292t-275 -121q-163 0 -238 79q-53 53 -53 99q0 14 8.5 25t17.5 14.5t11 1.5q53 -162 258 -162q137 0 224 102 t87 248q0 222 -305 318q-49 19 -49 45q0 37 24 55q209 0 307.5 72t98.5 217q0 108 -72.5 174.5t-199.5 66.5q-130 0 -220.5 -96t-132.5 -293l-194 -919q-7 -33 -31 -33h-8q-12 0 -21 10t-6 23z" />
<glyph unicode="&#xe0;" d="M86 401q0 110 40 215t108 185.5t166 130t208 49.5q153 0 256.5 -83t128.5 -200l43 199q7 38 19 54t32 16q6 0 13 -2t10.5 -4t3.5 -3l-166 -776q-17 -83 9 -114t83 -31q1 0 1.5 -5t-1 -11.5t-6 -13.5t-14.5 -12t-25 -5q-65 0 -99.5 46.5t-12.5 143.5l8 39 q-67 -115 -170 -176t-225 -61q-178 0 -294 113.5t-116 305.5zM154 403q0 -165 98 -264.5t252 -99.5q155 0 276 110t150 252l41 191q-14 143 -110.5 237.5t-256.5 94.5q-128 0 -233 -76t-161 -194.5t-56 -250.5zM483 1341q0 11 9.5 20t21.5 9q24 0 86 -57q63 -56 108.5 -104 t62 -72t13.5 -27q-4 -4 -29.5 6.5t-81 47t-120.5 91.5q-44 38 -57 55t-13 31z" />
<glyph unicode="&#xe1;" d="M86 401q0 110 40 215t108 185.5t166 130t208 49.5q153 0 256.5 -83t128.5 -200l43 199q7 38 19 54t32 16q6 0 13 -2t10.5 -4t3.5 -3l-166 -776q-17 -83 9 -114t83 -31q1 0 1.5 -5t-1 -11.5t-6 -13.5t-14.5 -12t-25 -5q-65 0 -99.5 46.5t-12.5 143.5l8 39 q-67 -115 -170 -176t-225 -61q-178 0 -294 113.5t-116 305.5zM154 403q0 -165 98 -264.5t252 -99.5q155 0 276 110t150 252l41 191q-14 143 -110.5 237.5t-256.5 94.5q-128 0 -233 -76t-161 -194.5t-56 -250.5zM596 1110q-1 5 22 28t80.5 70t132.5 101q71 51 95 51 q12 0 20 -8.5t8 -20.5t-17.5 -29.5t-70.5 -54.5q-78 -52 -143.5 -86.5t-94.5 -44.5t-32 -6z" />
<glyph unicode="&#xe2;" d="M86 401q0 110 40 215t108 185.5t166 130t208 49.5q153 0 256.5 -83t128.5 -200l43 199q7 38 19 54t32 16q6 0 13 -2t10.5 -4t3.5 -3l-166 -776q-17 -83 9 -114t83 -31q1 0 1.5 -5t-1 -11.5t-6 -13.5t-14.5 -12t-25 -5q-65 0 -99.5 46.5t-12.5 143.5l8 39 q-67 -115 -170 -176t-225 -61q-178 0 -294 113.5t-116 305.5zM154 403q0 -165 98 -264.5t252 -99.5q155 0 276 110t150 252l41 191q-14 143 -110.5 237.5t-256.5 94.5q-128 0 -233 -76t-161 -194.5t-56 -250.5zM463 1124q0 17 27 48.5t106 107.5q44 43 80.5 75t51.5 43 t17 11q3 0 14 -10.5t33.5 -42t47.5 -74.5q73 -127 73 -147q0 -12 -7.5 -20.5t-16.5 -8.5q-13 0 -31.5 25.5t-60.5 105.5q-34 67 -60 113q-15 -16 -46.5 -51t-59.5 -64q-72 -76 -103 -102.5t-45 -26.5q-20 0 -20 18z" />
<glyph unicode="&#xe3;" d="M86 401q0 110 40 215t108 185.5t166 130t208 49.5q153 0 256.5 -83t128.5 -200l43 199q7 38 19 54t32 16q6 0 13 -2t10.5 -4t3.5 -3l-166 -776q-17 -83 9 -114t83 -31q1 0 1.5 -5t-1 -11.5t-6 -13.5t-14.5 -12t-25 -5q-65 0 -99.5 46.5t-12.5 143.5l8 39 q-67 -115 -170 -176t-225 -61q-178 0 -294 113.5t-116 305.5zM154 403q0 -165 98 -264.5t252 -99.5q155 0 276 110t150 252l41 191q-14 143 -110.5 237.5t-256.5 94.5q-128 0 -233 -76t-161 -194.5t-56 -250.5zM432 1124q43 185 158 185q41 0 72 -21.5t63 -60.5 q21 -26 32.5 -38t27.5 -21t34 -9q57 0 90 96q14 43 37 43q16 0 23 -10q-39 -184 -156 -184q-42 0 -73 22t-62 62q-31 36 -50.5 50.5t-45.5 14.5q-59 0 -90 -96q-8 -24 -16 -33.5t-21 -9.5t-23 10z" />
<glyph unicode="&#xe4;" d="M86 401q0 110 40 215t108 185.5t166 130t208 49.5q153 0 256.5 -83t128.5 -200l43 199q7 38 19 54t32 16q6 0 13 -2t10.5 -4t3.5 -3l-166 -776q-17 -83 9 -114t83 -31q1 0 1.5 -5t-1 -11.5t-6 -13.5t-14.5 -12t-25 -5q-65 0 -99.5 46.5t-12.5 143.5l8 39 q-67 -115 -170 -176t-225 -61q-178 0 -294 113.5t-116 305.5zM154 403q0 -165 98 -264.5t252 -99.5q155 0 276 110t150 252l41 191q-14 143 -110.5 237.5t-256.5 94.5q-128 0 -233 -76t-161 -194.5t-56 -250.5zM483 1153q0 29 15.5 48.5t40.5 19.5q55 0 55 -43 q0 -29 -14.5 -47.5t-40.5 -18.5q-56 0 -56 41zM793 1153q0 29 15 48.5t42 19.5q53 0 53 -43q0 -29 -14.5 -47.5t-40.5 -18.5q-55 0 -55 41z" />
<glyph unicode="&#xe5;" d="M86 401q0 110 40 215t108 185.5t166 130t208 49.5q153 0 256.5 -83t128.5 -200l43 199q7 38 19 54t32 16q6 0 13 -2t10.5 -4t3.5 -3l-166 -776q-17 -83 9 -114t83 -31q1 0 1.5 -5t-1 -11.5t-6 -13.5t-14.5 -12t-25 -5q-65 0 -99.5 46.5t-12.5 143.5l8 39 q-67 -115 -170 -176t-225 -61q-178 0 -294 113.5t-116 305.5zM154 403q0 -165 98 -264.5t252 -99.5q155 0 276 110t150 252l41 191q-14 143 -110.5 237.5t-256.5 94.5q-128 0 -233 -76t-161 -194.5t-56 -250.5zM516 1282q0 97 67 168.5t160 71.5q88 0 138.5 -53.5 t50.5 -125.5q0 -97 -67 -168t-160 -71q-88 0 -138.5 52.5t-50.5 125.5zM569 1286q0 -54 36.5 -94.5t101.5 -40.5q71 0 121.5 56t50.5 132q0 52 -37 94t-101 42q-71 0 -121.5 -56.5t-50.5 -132.5z" />
<glyph unicode="&#xe6;" horiz-adv-x="1744" d="M27 223q0 114 69 183q76 76 232.5 108.5t462.5 32.5h38l7 26q33 167 -48.5 258t-252.5 91q-220 0 -330 -156q-2 0 -8.5 3.5t-13.5 13t-7 20.5q0 22 39 61q50 50 132.5 83.5t195.5 33.5q163 0 260.5 -79.5t93.5 -231.5q75 143 205 227t289 84q145 0 231 -67t86 -164 q0 -52 -14.5 -91.5t-50 -75t-96.5 -57.5t-153 -38t-219 -16t-296 7q-11 -48 -11 -106q0 -152 87.5 -243t248.5 -91q114 0 203 46t143 126q6 4 20.5 -6t14.5 -25q0 -29 -47 -76q-122 -122 -338 -122q-164 0 -263 84.5t-118 226.5q-51 -145 -171.5 -228t-278.5 -83 q-153 0 -247.5 65t-94.5 176zM92 227q0 -85 80 -136.5t205 -51.5q145 0 264 90.5t154 251.5l24 113h-55q-290 -3 -421 -29.5t-193 -89.5q-58 -55 -58 -148zM893 535q155 -7 270.5 -7t198.5 14t137 32t86 47.5t44.5 60t12.5 68.5q0 70 -68.5 122t-187.5 52 q-170 0 -305 -110.5t-188 -278.5z" />
<glyph unicode="&#xe7;" horiz-adv-x="1036" d="M82 416q0 109 40.5 211.5t110 180t168 124.5t207.5 47q195 0 312 -117q39 -39 59 -88t20 -84q0 -18 -11.5 -29t-22.5 -11.5t-15 1.5q-11 113 -101 192t-241 79q-97 0 -183.5 -42.5t-146 -112.5t-94 -161t-34.5 -186q0 -176 104.5 -277.5t271.5 -101.5q119 0 205 57.5 t133 141.5q7 2 23 -6.5t16 -26.5q0 -35 -63 -98q-53 -53 -135 -90t-185 -37q-188 0 -313 115.5t-125 318.5zM258 -399l209 307q1 3 15 -0.5t28 -13.5t14 -25q0 -24 -24 -51l-211 -240q-6 -7 -21 4t-10 19z" />
<glyph unicode="&#xe8;" horiz-adv-x="1036" d="M82 369q0 164 77 304.5t214 224t301 83.5q152 0 238.5 -66.5t86.5 -164.5q0 -49 -15 -89t-54 -77t-100.5 -61.5t-160 -39t-227.5 -14.5q-131 0 -284 14q-11 -68 -11 -110q0 -152 90.5 -243t256.5 -91q232 0 348 172q2 2 10.5 -1t16.5 -11.5t8 -18.5q0 -25 -48 -76 q-122 -122 -337 -122q-195 0 -302.5 107t-107.5 280zM172 541q142 -17 264 -17q496 0 496 226q0 70 -69 122t-193 52q-173 0 -309.5 -108.5t-188.5 -274.5zM469 1341q0 11 9.5 20t21.5 9q24 0 86 -57q63 -56 108.5 -104t62 -72t13.5 -27q-4 -4 -29.5 6.5t-81 47t-120.5 91.5 q-44 38 -57 55t-13 31z" />
<glyph unicode="&#xe9;" horiz-adv-x="1036" d="M82 369q0 164 77 304.5t214 224t301 83.5q152 0 238.5 -66.5t86.5 -164.5q0 -49 -15 -89t-54 -77t-100.5 -61.5t-160 -39t-227.5 -14.5q-131 0 -284 14q-11 -68 -11 -110q0 -152 90.5 -243t256.5 -91q232 0 348 172q2 2 10.5 -1t16.5 -11.5t8 -18.5q0 -25 -48 -76 q-122 -122 -337 -122q-195 0 -302.5 107t-107.5 280zM172 541q142 -17 264 -17q496 0 496 226q0 70 -69 122t-193 52q-173 0 -309.5 -108.5t-188.5 -274.5zM594 1110q-1 5 22 28t80.5 70t132.5 101q71 51 95 51q12 0 20 -8.5t8 -20.5t-17.5 -29.5t-70.5 -54.5 q-78 -52 -143.5 -86.5t-94.5 -44.5t-32 -6z" />
<glyph unicode="&#xea;" horiz-adv-x="1036" d="M82 369q0 164 77 304.5t214 224t301 83.5q152 0 238.5 -66.5t86.5 -164.5q0 -49 -15 -89t-54 -77t-100.5 -61.5t-160 -39t-227.5 -14.5q-131 0 -284 14q-11 -68 -11 -110q0 -152 90.5 -243t256.5 -91q232 0 348 172q2 2 10.5 -1t16.5 -11.5t8 -18.5q0 -25 -48 -76 q-122 -122 -337 -122q-195 0 -302.5 107t-107.5 280zM172 541q142 -17 264 -17q496 0 496 226q0 70 -69 122t-193 52q-173 0 -309.5 -108.5t-188.5 -274.5zM483 1124q0 17 27 48.5t106 107.5q44 43 81 75t52 43t17 11q3 0 13.5 -10.5t33 -42t47.5 -74.5q74 -129 74 -147 q0 -12 -8 -20.5t-17 -8.5q-13 0 -31.5 25.5t-60.5 105.5q-44 86 -59 113q-14 -15 -46.5 -50t-60.5 -65q-72 -77 -102.5 -103t-44.5 -26q-9 0 -15 5t-6 13z" />
<glyph unicode="&#xeb;" horiz-adv-x="1036" d="M82 369q0 164 77 304.5t214 224t301 83.5q152 0 238.5 -66.5t86.5 -164.5q0 -49 -15 -89t-54 -77t-100.5 -61.5t-160 -39t-227.5 -14.5q-131 0 -284 14q-11 -68 -11 -110q0 -152 90.5 -243t256.5 -91q232 0 348 172q2 2 10.5 -1t16.5 -11.5t8 -18.5q0 -25 -48 -76 q-122 -122 -337 -122q-195 0 -302.5 107t-107.5 280zM172 541q142 -17 264 -17q496 0 496 226q0 70 -69 122t-193 52q-173 0 -309.5 -108.5t-188.5 -274.5zM500 1153q0 29 15 48.5t40 19.5q55 0 55 -43q0 -29 -14.5 -47.5t-40.5 -18.5q-55 0 -55 41zM809 1153q0 29 15 48.5 t42 19.5q54 0 54 -43q0 -29 -15 -47.5t-41 -18.5q-55 0 -55 41z" />
<glyph unicode="&#xec;" horiz-adv-x="374" d="M80 1341q0 11 9.5 20t21.5 9q24 0 86 -57q63 -56 108.5 -104t62 -72t13.5 -27q-4 -4 -29.5 6.5t-81 47t-120.5 91.5q-44 38 -57 55t-13 31zM92 180l160 756q5 31 31 31h8q31 0 26 -31l-159 -754q-19 -84 8.5 -115.5t87.5 -29.5q1 0 1 -5t-1.5 -11.5t-6 -13.5t-15 -12 t-25.5 -5q-67 0 -102 46.5t-13 143.5z" />
<glyph unicode="&#xed;" horiz-adv-x="374" d="M92 180l160 756q5 31 31 31h8q31 0 26 -31l-159 -754q-19 -84 8.5 -115.5t87.5 -29.5q1 0 1 -5t-1.5 -11.5t-6 -13.5t-15 -12t-25.5 -5q-67 0 -102 46.5t-13 143.5zM229 1110q-1 5 22.5 28.5t80.5 70t133 100.5q71 51 94 51q12 0 20.5 -8.5t8.5 -20.5t-17.5 -29.5 t-70.5 -54.5q-78 -52 -144 -86.5t-95 -44.5t-32 -6z" />
<glyph unicode="&#xee;" horiz-adv-x="374" d="M92 180l160 756q5 31 31 31h8q31 0 26 -31l-159 -754q-19 -84 8.5 -115.5t87.5 -29.5q1 0 1 -5t-1.5 -11.5t-6 -13.5t-15 -12t-25.5 -5q-67 0 -102 46.5t-13 143.5zM102 1124q0 17 27 48t107 108q44 43 80.5 75t51.5 43t17 11q3 0 13.5 -10.5t33 -42t47.5 -74.5 q74 -129 74 -147q0 -12 -8 -20.5t-17 -8.5q-13 0 -31.5 25.5t-60.5 105.5q-44 86 -59 113q-14 -15 -46.5 -50t-60.5 -65q-72 -77 -102.5 -103t-44.5 -26q-9 0 -15 5t-6 13z" />
<glyph unicode="&#xef;" horiz-adv-x="374" d="M92 180l160 756q5 31 31 31h8q31 0 26 -31l-159 -754q-19 -84 8.5 -115.5t87.5 -29.5q1 0 1 -5t-1.5 -11.5t-6 -13.5t-15 -12t-25.5 -5q-67 0 -102 46.5t-13 143.5zM123 1153q0 29 15 48.5t40 19.5q55 0 55 -43q0 -29 -14.5 -47.5t-40.5 -18.5q-55 0 -55 41zM432 1153 q0 29 15 48.5t42 19.5q54 0 54 -43q0 -29 -15 -47.5t-41 -18.5q-55 0 -55 41z" />
<glyph unicode="&#xf0;" horiz-adv-x="1089" d="M61 362q0 208 136 349t354 141q143 0 259 -75t159 -167q4 62 4 88q0 287 -209 480l-328 -177q-1 -1 -5.5 2.5t-8.5 11.5t-4 17q0 26 47 49l250 131q-80 63 -178.5 94t-180.5 35q-1 2 -2 14.5t12 27t37 14.5q71 0 177 -37t198 -115l281 150q2 1 7 -2.5t9 -11.5t4 -17 q0 -23 -47 -49l-211 -109q215 -208 215 -512q0 -78 -13.5 -158t-40.5 -161t-72.5 -151t-104 -124.5t-141 -86t-177.5 -31.5q-188 0 -307 102t-119 278zM127 362q0 -149 101 -236t257 -87q104 0 187.5 41t139 113t90.5 157.5t52 184.5q-33 96 -146.5 178t-258.5 82 q-198 0 -310 -122t-112 -311z" />
<glyph unicode="&#xf1;" horiz-adv-x="1093" d="M49 29l199 934q0 4 16 4q48 0 33 -72l-33 -158q148 244 395 244q146 0 234 -86t88 -229q0 -84 -57 -320q-45 -172 -45 -223q0 -84 94 -88q1 0 1 -4.5t-1.5 -11t-5.5 -13.5t-13.5 -11.5t-23.5 -4.5q-50 0 -83.5 31.5t-33.5 91.5q0 66 45 241q55 222 55 301 q0 124 -71 194.5t-193 70.5q-134 0 -231 -72.5t-174 -206.5l-129 -612q-8 -33 -31 -33h-8q-34 0 -27 33zM428 1124q43 185 158 185q41 0 72 -21.5t63 -60.5q21 -26 32.5 -38t27.5 -21t34 -9q57 0 90 96q14 43 37 43q15 0 23 -10q-39 -184 -156 -184q-42 0 -73 22t-62 62 q-31 36 -50.5 50.5t-45.5 14.5q-60 0 -91 -96q-8 -24 -15.5 -33.5t-20.5 -9.5t-23 10z" />
<glyph unicode="&#xf2;" horiz-adv-x="1138" d="M84 418q0 154 73 284t195 204.5t264 74.5q191 0 315 -124t124 -312q0 -115 -43 -219.5t-115.5 -179.5t-170.5 -119.5t-204 -44.5q-190 0 -314 124t-124 312zM152 420q0 -162 104.5 -271.5t269.5 -109.5q90 0 175 39.5t148.5 106t101.5 160.5t38 198q0 163 -106 272 t-271 109q-90 0 -174.5 -39.5t-147 -106t-100.5 -160.5t-38 -198zM436 1341q0 11 9.5 20t21.5 9q24 0 86 -57q63 -56 108.5 -104t62 -72t13.5 -27q-4 -4 -29.5 6.5t-81 47t-120.5 91.5q-44 38 -57 55t-13 31z" />
<glyph unicode="&#xf3;" horiz-adv-x="1138" d="M84 418q0 154 73 284t195 204.5t264 74.5q191 0 315 -124t124 -312q0 -115 -43 -219.5t-115.5 -179.5t-170.5 -119.5t-204 -44.5q-190 0 -314 124t-124 312zM152 420q0 -162 104.5 -271.5t269.5 -109.5q90 0 175 39.5t148.5 106t101.5 160.5t38 198q0 163 -106 272 t-271 109q-90 0 -174.5 -39.5t-147 -106t-100.5 -160.5t-38 -198zM569 1110q-1 5 22.5 28.5t80.5 70t133 100.5q71 51 94 51q12 0 20.5 -8.5t8.5 -20.5t-17.5 -29.5t-70.5 -54.5q-78 -52 -144 -86.5t-95 -44.5t-32 -6z" />
<glyph unicode="&#xf4;" horiz-adv-x="1138" d="M84 418q0 154 73 284t195 204.5t264 74.5q191 0 315 -124t124 -312q0 -115 -43 -219.5t-115.5 -179.5t-170.5 -119.5t-204 -44.5q-190 0 -314 124t-124 312zM152 420q0 -162 104.5 -271.5t269.5 -109.5q90 0 175 39.5t148.5 106t101.5 160.5t38 198q0 163 -106 272 t-271 109q-90 0 -174.5 -39.5t-147 -106t-100.5 -160.5t-38 -198zM453 1124q0 17 27 48.5t106 107.5q44 43 80.5 75t51.5 43t17 11q3 0 13.5 -10.5t33 -42t47.5 -74.5q74 -129 74 -147q0 -12 -7.5 -20.5t-16.5 -8.5q-13 0 -32 25.5t-61 105.5q-44 86 -59 113 q-15 -16 -46.5 -51t-59.5 -64q-72 -76 -103 -102.5t-45 -26.5q-20 0 -20 18z" />
<glyph unicode="&#xf5;" horiz-adv-x="1138" d="M84 418q0 154 73 284t195 204.5t264 74.5q191 0 315 -124t124 -312q0 -115 -43 -219.5t-115.5 -179.5t-170.5 -119.5t-204 -44.5q-190 0 -314 124t-124 312zM152 420q0 -162 104.5 -271.5t269.5 -109.5q90 0 175 39.5t148.5 106t101.5 160.5t38 198q0 163 -106 272 t-271 109q-90 0 -174.5 -39.5t-147 -106t-100.5 -160.5t-38 -198zM424 1124q43 185 158 185q41 0 72 -21.5t63 -60.5q21 -26 32.5 -38t27.5 -21t34 -9q57 0 90 96q14 43 37 43q16 0 23 -10q-39 -184 -156 -184q-42 0 -73 22t-62 62q-31 36 -51 50.5t-46 14.5q-59 0 -90 -96 q-8 -24 -16 -33.5t-21 -9.5q-12 0 -22 10z" />
<glyph unicode="&#xf6;" horiz-adv-x="1138" d="M84 418q0 154 73 284t195 204.5t264 74.5q191 0 315 -124t124 -312q0 -115 -43 -219.5t-115.5 -179.5t-170.5 -119.5t-204 -44.5q-190 0 -314 124t-124 312zM152 420q0 -162 104.5 -271.5t269.5 -109.5q90 0 175 39.5t148.5 106t101.5 160.5t38 198q0 163 -106 272 t-271 109q-90 0 -174.5 -39.5t-147 -106t-100.5 -160.5t-38 -198zM473 1153q0 29 15 48.5t40 19.5q56 0 56 -43q0 -29 -15 -47.5t-41 -18.5q-55 0 -55 41zM782 1153q0 29 15.5 48.5t42.5 19.5q53 0 53 -43q0 -29 -14.5 -47.5t-40.5 -18.5q-56 0 -56 41z" />
<glyph unicode="&#xf7;" horiz-adv-x="1228" d="M201 539l2 8q6 26 39 26h782q18 0 24 -6t3 -20l-2 -8q-10 -27 -39 -27h-783q-36 0 -26 27zM508 250q0 41 18 59q17 17 41 17q27 0 42.5 -11t15.5 -30q0 -41 -21 -62q-14 -14 -41 -14q-55 0 -55 41zM625 803q0 39 20 59q15 15 41 15q55 0 55 -41q0 -42 -18 -60 q-16 -16 -43 -16q-55 0 -55 43z" />
<glyph unicode="&#xf8;" horiz-adv-x="1138" d="M0 -8q0 23 29 49l135 119q-80 113 -80 258q0 154 73 284t195 204.5t264 74.5q195 0 322 -133l166 149q3 2 10 -1.5t13 -11.5t6 -17q0 -18 -29 -47l-131 -117q82 -108 82 -258q0 -115 -43 -219.5t-115.5 -179.5t-170.5 -119.5t-204 -44.5q-196 0 -321 135l-174 -154 q-2 -2 -8.5 1.5t-12.5 11.5t-6 16zM152 420q0 -126 63 -217l676 602q-106 119 -279 119q-90 0 -174.5 -39.5t-147 -106t-100.5 -160.5t-38 -198zM246 160q108 -121 280 -121q90 0 175 39.5t148.5 106t101.5 160.5t38 198q0 127 -65 219z" />
<glyph unicode="&#xf9;" horiz-adv-x="1093" d="M119 243.5q-14 86.5 10 200.5l104 492q5 31 29 31h8q34 0 27 -31l-104 -496q-20 -100 -9 -175t50 -124t96.5 -73.5t130.5 -24.5q124 0 216 64.5t167 191.5l133 637q4 18 11 24.5t20 6.5h8q33 0 26 -31l-159 -754q-17 -83 9 -114t83 -31q1 0 1.5 -5t-1 -11.5t-6 -13.5 t-14.5 -12t-25 -5q-66 0 -100.5 46.5t-12.5 143.5l6 25q-136 -223 -370 -223q-88 0 -157.5 29.5t-116 87.5t-60.5 144.5zM428 1331q0 11 9.5 20t21.5 9q24 0 86 -57q63 -56 108.5 -104t62 -72t13.5 -27q-4 -4 -29.5 6.5t-81 47t-120.5 91.5q-44 38 -57 55t-13 31z" />
<glyph unicode="&#xfa;" horiz-adv-x="1093" d="M119 243.5q-14 86.5 10 200.5l104 492q5 31 29 31h8q34 0 27 -31l-104 -496q-20 -100 -9 -175t50 -124t96.5 -73.5t130.5 -24.5q124 0 216 64.5t167 191.5l133 637q4 18 11 24.5t20 6.5h8q33 0 26 -31l-159 -754q-17 -83 9 -114t83 -31q1 0 1.5 -5t-1 -11.5t-6 -13.5 t-14.5 -12t-25 -5q-66 0 -100.5 46.5t-12.5 143.5l6 25q-136 -223 -370 -223q-88 0 -157.5 29.5t-116 87.5t-60.5 144.5zM555 1100q-1 5 22.5 28t80.5 69.5t133 100.5q73 52 94 52q12 0 20 -8.5t8 -20.5t-17.5 -29.5t-70.5 -54.5q-78 -52 -143.5 -86.5t-94.5 -44.5t-32 -6z " />
<glyph unicode="&#xfb;" horiz-adv-x="1093" d="M119 243.5q-14 86.5 10 200.5l104 492q5 31 29 31h8q34 0 27 -31l-104 -496q-20 -100 -9 -175t50 -124t96.5 -73.5t130.5 -24.5q124 0 216 64.5t167 191.5l133 637q4 18 11 24.5t20 6.5h8q33 0 26 -31l-159 -754q-17 -83 9 -114t83 -31q1 0 1.5 -5t-1 -11.5t-6 -13.5 t-14.5 -12t-25 -5q-66 0 -100.5 46.5t-12.5 143.5l6 25q-136 -223 -370 -223q-88 0 -157.5 29.5t-116 87.5t-60.5 144.5zM446 1114q0 17 27 48t107 108q44 43 80.5 75t51.5 43t17 11q3 0 13.5 -10.5t33 -42t47.5 -74.5q74 -129 74 -148q0 -12 -8 -20t-17 -8 q-13 0 -31.5 25.5t-60.5 105.5q-38 75 -59 112l-45.5 -49t-61.5 -65q-72 -77 -102.5 -103t-44.5 -26q-9 0 -15 5t-6 13z" />
<glyph unicode="&#xfc;" horiz-adv-x="1093" d="M119 243.5q-14 86.5 10 200.5l104 492q5 31 29 31h8q34 0 27 -31l-104 -496q-20 -100 -9 -175t50 -124t96.5 -73.5t130.5 -24.5q124 0 216 64.5t167 191.5l133 637q4 18 11 24.5t20 6.5h8q33 0 26 -31l-159 -754q-17 -83 9 -114t83 -31q1 0 1.5 -5t-1 -11.5t-6 -13.5 t-14.5 -12t-25 -5q-66 0 -100.5 46.5t-12.5 143.5l6 25q-136 -223 -370 -223q-88 0 -157.5 29.5t-116 87.5t-60.5 144.5zM467 1143q0 29 15 48t40 19q56 0 56 -43q0 -28 -15 -46.5t-41 -18.5q-55 0 -55 41zM776 1143q0 29 15.5 48t42.5 19q53 0 53 -43q0 -28 -15 -46.5 t-41 -18.5q-55 0 -55 41z" />
<glyph unicode="&#xfd;" horiz-adv-x="905" d="M-178 -324q0 9 6 18t12.5 13t9.5 2q17 -23 47 -36t60 -13q56 0 111 44t135 161l127 192q-31 2 -37 45l-103 625q-17 105 -51.5 148t-95.5 43q-1 0 -1.5 5.5t0.5 13t5.5 15.5t16 13.5t28.5 5.5q48 0 86 -35q58 -58 78 -213l98 -631l557 873q2 0 10 1t16 -4t13.5 -12 t3 -23.5t-15.5 -37.5l-674 -1039q-93 -146 -158 -197.5t-147 -51.5q-80 0 -123 43q-14 11 -14 32zM483 1079q-1 5 22.5 28.5t80.5 70t133 100.5q71 51 94 51q12 0 20.5 -8.5t8.5 -20.5t-17.5 -28.5t-70.5 -54.5q-78 -52 -144 -87t-95 -45t-32 -6z" />
<glyph unicode="&#xfe;" horiz-adv-x="1148" d="M-35 -367l365 1719q4 18 11 25t19 7h9q34 0 26 -32l-129 -604q64 108 163.5 170.5t225.5 62.5q178 0 296 -115.5t118 -312.5q0 -147 -65 -277.5t-184.5 -212t-264.5 -81.5q-156 0 -261 85.5t-130 202.5l-133 -637q-4 -18 -11.5 -25t-19.5 -7h-8q-34 0 -27 32zM201 440 q-15 -70 3 -141t62 -129t121 -94.5t172 -36.5q127 0 230 74t157.5 191t54.5 249q0 168 -99.5 269.5t-252.5 101.5q-137 0 -243.5 -81t-161.5 -204z" />
<glyph unicode="&#xff;" horiz-adv-x="905" d="M-178 -324q0 9 6 18t12.5 13t9.5 2q17 -23 47 -36t60 -13q56 0 111 44t135 161l127 192q-31 2 -37 45l-103 625q-17 105 -51.5 148t-95.5 43q-1 0 -1.5 5.5t0.5 13t5.5 15.5t16 13.5t28.5 5.5q48 0 86 -35q58 -58 78 -213l98 -631l557 873q2 0 10 1t16 -4t13.5 -12 t3 -23.5t-15.5 -37.5l-674 -1039q-93 -146 -158 -197.5t-147 -51.5q-80 0 -123 43q-14 11 -14 32zM362 1153q0 29 15.5 48.5t40.5 19.5q55 0 55 -43q0 -29 -14.5 -47.5t-40.5 -18.5q-56 0 -56 41zM672 1153q0 29 15 48.5t42 19.5q53 0 53 -43q0 -29 -14.5 -47.5t-40.5 -18.5 q-55 0 -55 41z" />
<glyph unicode="&#x152;" horiz-adv-x="2048" d="M129 553q0 163 59.5 310t158 250t229 163.5t268.5 60.5q64 0 119 -12h1126q31 0 31 -16q0 -22 -13 -39q-6 -6 -30 -6h-971q141 -59 222 -190t81 -302q0 -10 -1 -30.5t-1 -30.5h408q32 0 32 -17q0 -21 -12 -37q-9 -6 -29 -6h-407q-29 -206 -151 -365t-294 -225h906 q32 0 32 -16q0 -8 -4 -20.5t-10 -16.5q-4 -8 -29 -8h-1044q-55 -12 -111 -12q-256 0 -410.5 158.5t-154.5 406.5zM201 557q0 -223 135.5 -366.5t365.5 -143.5q124 0 240 56t203 151.5t139.5 230t52.5 283.5q0 223 -135 366.5t-364 143.5q-124 0 -241 -56t-204 -151.5 t-139.5 -230t-52.5 -283.5z" />
<glyph unicode="&#x153;" horiz-adv-x="1898" d="M84 410q0 157 69.5 288.5t191 207t267.5 75.5q163 0 277 -102t133 -265q63 161 205.5 264t316.5 103q146 0 232 -66.5t86 -164.5q0 -49 -15 -89t-53 -76.5t-98 -61.5t-155.5 -39.5t-221.5 -14.5q-137 0 -285 14q-10 -62 -10 -110q0 -151 87.5 -242.5t246.5 -91.5 q115 0 204.5 46t143.5 126q2 2 10.5 -1t16.5 -11.5t8 -18.5q0 -26 -47 -76q-125 -122 -338 -122q-163 0 -264.5 88t-116.5 235q-59 -146 -185 -234.5t-280 -88.5q-183 0 -304.5 120.5t-121.5 307.5zM152 412q0 -160 102 -266.5t262 -106.5q123 0 227.5 67t166 185t61.5 260 q0 159 -102.5 266t-258.5 107q-191 0 -324.5 -148t-133.5 -364zM1049 539q147 -15 264 -15q112 0 198.5 13t139 34t86.5 51t46.5 61t12.5 67q0 70 -68.5 122t-187.5 52q-169 0 -304 -109.5t-187 -275.5z" />
<glyph unicode="&#x178;" horiz-adv-x="1069" d="M184 1305q0 3 5 9t14 10t18.5 5t20 -6.5t18.5 -24.5l315 -655l592 688q7 2 22.5 -4.5t21.5 -25t-29 -58.5l-584 -665l-117 -549q-8 -33 -37 -33h-8q-30 0 -22 33l118 557zM504 1497q0 29 15 48.5t40 19.5q55 0 55 -43q0 -29 -14.5 -47.5t-40.5 -18.5q-55 0 -55 41z M813 1497q0 29 15 48.5t42 19.5q54 0 54 -43q0 -29 -15 -47.5t-41 -18.5q-55 0 -55 41z" />
<glyph unicode="&#x2c6;" horiz-adv-x="1024" d="M426 1124q0 17 27 48.5t106 107.5q44 43 81 75t52 43t17 11q3 0 13.5 -10.5t33 -42t47.5 -74.5q74 -129 74 -147q0 -12 -8 -20.5t-17 -8.5q-13 0 -31.5 25.5t-60.5 105.5q-34 67 -60 113q-15 -16 -46.5 -51t-59.5 -64q-72 -76 -103 -102.5t-45 -26.5q-20 0 -20 18z" />
<glyph unicode="&#x2dc;" horiz-adv-x="1021" d="M395 1124q43 185 158 185q41 0 72 -21.5t63 -60.5q21 -26 32.5 -38t27.5 -21t34 -9q57 0 90 96q14 43 37 43q15 0 23 -10q-39 -184 -156 -184q-42 0 -73 22t-62 62q-31 36 -50.5 50.5t-45.5 14.5q-59 0 -90 -96q-8 -24 -16 -33.5t-21 -9.5t-23 10z" />
<glyph unicode="&#x2000;" horiz-adv-x="887" />
<glyph unicode="&#x2001;" horiz-adv-x="1774" />
<glyph unicode="&#x2002;" horiz-adv-x="887" />
<glyph unicode="&#x2003;" horiz-adv-x="1774" />
<glyph unicode="&#x2004;" horiz-adv-x="591" />
<glyph unicode="&#x2005;" horiz-adv-x="443" />
<glyph unicode="&#x2006;" horiz-adv-x="295" />
<glyph unicode="&#x2007;" horiz-adv-x="295" />
<glyph unicode="&#x2008;" horiz-adv-x="221" />
<glyph unicode="&#x2009;" horiz-adv-x="354" />
<glyph unicode="&#x200a;" horiz-adv-x="98" />
<glyph unicode="&#x2010;" horiz-adv-x="690" d="M88 508q0 23 12 35q8 8 29 8h459q15 0 24 -5.5t9 -13.5q0 -19 -15 -34q-9 -9 -28 -9h-459q-31 0 -31 19z" />
<glyph unicode="&#x2011;" horiz-adv-x="690" d="M88 508q0 23 12 35q8 8 29 8h459q15 0 24 -5.5t9 -13.5q0 -19 -15 -34q-9 -9 -28 -9h-459q-31 0 -31 19z" />
<glyph unicode="&#x2012;" horiz-adv-x="690" d="M88 508q0 23 12 35q8 8 29 8h459q15 0 24 -5.5t9 -13.5q0 -19 -15 -34q-9 -9 -28 -9h-459q-31 0 -31 19z" />
<glyph unicode="&#x2013;" horiz-adv-x="980" d="M88 508q0 23 12 35q9 6 27 6h754q30 0 30 -17q0 -18 -12 -34q-9 -6 -29 -6h-751q-31 0 -31 16z" />
<glyph unicode="&#x2014;" horiz-adv-x="1306" d="M88 508q0 23 12 35q9 6 27 6h1077q31 0 31 -17q0 -22 -12 -34q-6 -6 -27 -6h-1077q-31 0 -31 16z" />
<glyph unicode="&#x2018;" horiz-adv-x="372" d="M193 956q0 18 22 54l221 331q5 7 21 -2.5t10 -19.5q-13 -25 -35.5 -66t-69 -128t-77.5 -144.5t-31 -56.5q-3 -2 -16.5 -2t-29 9.5t-15.5 24.5z" />
<glyph unicode="&#x2019;" horiz-adv-x="372" d="M178 944q14 25 36 66t69 127.5t78 144t30 57.5q4 1 18 1t29 -9.5t15 -25.5q0 -22 -21 -52l-221 -331q-6 -8 -21.5 2t-11.5 20z" />
<glyph unicode="&#x201a;" horiz-adv-x="358" d="M-127 -274q14 25 36 66t69 128t78 144.5t30 56.5q4 1 17.5 0.5t28.5 -10t15 -25.5q0 -23 -22 -51l-219 -332q-6 -8 -21.5 2.5t-11.5 20.5z" />
<glyph unicode="&#x201c;" horiz-adv-x="628" d="M193 958q0 18 22 54l221 331q5 7 21 -2.5t10 -19.5q-13 -25 -35.5 -66t-69 -128t-77.5 -144.5t-31 -56.5q-3 -2 -16.5 -2t-29 9.5t-15.5 24.5zM451 956q0 21 20 54l221 331q6 6 21.5 -3t9.5 -19q-13 -25 -35 -66t-69 -128t-77.5 -144.5t-29.5 -56.5q-4 -2 -17.5 -2 t-28.5 9.5t-15 24.5z" />
<glyph unicode="&#x201d;" horiz-adv-x="628" d="M178 944q14 25 36 66t69 127.5t78 144t30 57.5q4 1 18 1t29 -9.5t15 -25.5q0 -22 -21 -52l-221 -331q-6 -8 -21.5 2t-11.5 20zM436 942q13 25 35 66t69 127.5t77.5 144t29.5 57.5q4 1 18.5 1t30 -9.5t15.5 -25.5q0 -19 -23 -52l-221 -331q-6 -8 -21.5 2t-9.5 20z" />
<glyph unicode="&#x201e;" horiz-adv-x="614" d="M-127 -274q14 25 36 66t69 128t78 144.5t30 56.5q4 1 17.5 0.5t28.5 -10t15 -25.5q0 -23 -22 -51l-219 -332q-6 -8 -21.5 2.5t-11.5 20.5zM129 -276q14 25 36 66t69 128t78 144.5t30 56.5q4 1 17.5 0.5t28.5 -10t15 -25.5q0 -22 -20 -51l-221 -332q-6 -8 -21.5 2.5 t-11.5 20.5z" />
<glyph unicode="&#x2022;" horiz-adv-x="569" d="M143 520q0 62 43.5 106t106.5 44q61 0 104 -44t43 -106q0 -63 -43 -107t-104 -44q-63 0 -106.5 44t-43.5 107z" />
<glyph unicode="&#x2026;" horiz-adv-x="1073" d="M29 33q0 41 20 61q15 15 41 15q55 0 55 -41q0 -43 -20 -60q-13 -16 -41 -16q-26 0 -40.5 11t-14.5 30zM387 33q0 40 21 61q15 15 41 15q55 0 55 -41q0 -42 -21 -60q-16 -16 -41 -16q-26 0 -40.5 11t-14.5 30zM745 33q0 39 19 61q15 15 43 15q55 0 55 -41q0 -40 -20 -60 q-16 -16 -41 -16q-26 0 -41 11t-15 30z" />
<glyph unicode="&#x202f;" horiz-adv-x="354" />
<glyph unicode="&#x2039;" horiz-adv-x="600" d="M90 500q1 4 22 22t73.5 58t123.5 90q119 83 163 110t63 27q11 0 17.5 -7.5t6.5 -17.5q0 -32 -213 -170l-192 -125l139 -131q95 -89 118 -113.5t23 -39.5q0 -9 -7 -16t-19 -7q-19 0 -51.5 27.5t-116.5 114.5q-153 161 -150 178z" />
<glyph unicode="&#x203a;" horiz-adv-x="600" d="M47 205q0 30 213 168q22 14 88.5 57.5t104.5 67.5l-142 131q-89 83 -114 111t-25 42q0 10 8 17.5t19 7.5q19 0 50.5 -27t117.5 -114q153 -163 149 -181q-1 -3 -22.5 -21.5t-74.5 -58.5t-124 -90q-113 -80 -159.5 -107.5t-65.5 -27.5q-10 0 -16.5 7t-6.5 18z" />
<glyph unicode="&#x205f;" horiz-adv-x="443" />
<glyph unicode="&#x20ac;" horiz-adv-x="1263" d="M78 492q0 25 12 34q9 9 29 9h172q11 126 51 266h-164q-31 0 -31 16q0 22 13 35q8 8 28 8h172q71 205 191 328q155 155 373 155q178 0 290 -112q32 -34 52 -78.5t20 -75.5q0 -17 -11 -28.5t-21 -12.5t-13 0q-25 110 -108 180t-218 70q-179 0 -319 -137 q-103 -103 -168 -289h502q31 0 31 -16q0 -25 -13 -35q-5 -8 -26 -8h-512q-43 -149 -50 -266h500q31 0 31 -17q0 -23 -12 -35q-4 -6 -27 -6h-494v-4q0 -200 101.5 -316t271.5 -116q116 0 207.5 59.5t140.5 151.5q7 2 21 -7.5t14 -27.5q0 -38 -67 -108q-56 -55 -140.5 -91 t-175.5 -36q-205 0 -323.5 128.5t-118.5 360.5v6h-180q-31 0 -31 15z" />
<glyph unicode="&#x2122;" horiz-adv-x="1290" d="M143 1298v5q0 22 25 22h461q24 0 24 -22v-5q0 -22 -24 -22h-203v-547q0 -29 -25 -29h-8q-22 0 -22 29v547h-203q-25 0 -25 22zM754 729v569q0 13 8 22t20 9h23q23 0 35 -24l194 -369l195 369q13 24 35 24h22q12 0 20.5 -9t8.5 -22v-569q0 -29 -23 -29h-10q-20 0 -20 29 v526l-195 -372q-10 -17 -33 -17q-12 0 -18.5 3t-8.5 5t-6 9l-194 372v-526q0 -29 -21 -29h-10q-22 0 -22 29z" />
<glyph unicode="&#xe000;" horiz-adv-x="972" d="M0 0v973h973v-973h-973z" />
</font>
</defs>
</svg>
